<svg width="24" height="34" viewBox="0 0 24 34" fill="none" xmlns="http://www.w3.org/2000/svg">
<path d="M20.4445 13.8333V9.31553C20.4898 7.02697 19.6268 4.81363 18.0442 3.15984C16.4616 1.50604 14.2884 0.546469 12 0.491089C9.71168 0.546469 7.53845 1.50604 5.95587 3.15984C4.3733 4.81363 3.51025 7.02697 3.55558 9.31553V13.8333H0.388916V31.7778C0.388916 32.3377 0.611336 32.8746 1.00725 33.2705C1.40316 33.6664 1.94013 33.8889 2.50003 33.8889H21.5C22.0599 33.8889 22.5969 33.6664 22.9928 33.2705C23.3887 32.8746 23.6111 32.3377 23.6111 31.7778V13.8333H20.4445ZM5.66669 9.31553C5.62118 7.58679 6.26177 5.9103 7.44848 4.65238C8.6352 3.39446 10.2716 2.65739 12 2.6022C13.7285 2.65739 15.3649 3.39446 16.5516 4.65238C17.7383 5.9103 18.3789 7.58679 18.3334 9.31553V13.8333H5.66669V9.31553ZM2.50003 31.7778V15.9444H21.5V31.7778H2.50003Z" fill="black"/>
</svg>
