<svg width="96" height="96" viewBox="0 0 96 96" fill="none" xmlns="http://www.w3.org/2000/svg">
<path d="M24.0317 47.7736H0V23.7419C0 10.6325 10.6325 0 23.7419 0H47.7736V24.0317C47.7736 37.1412 37.1412 47.7736 24.0317 47.7736Z" fill="#B1AFFF"/>
<path d="M24.0317 95.5999H0V71.5682C0 58.4588 10.6325 47.8263 23.7419 47.8263H47.7736V71.858C47.7736 84.9675 37.1412 95.5999 24.0317 95.5999Z" fill="#B8E8FC"/>
<path d="M71.8579 95.5999H47.8262V71.5682C47.8262 58.4588 58.4586 47.8263 71.5681 47.8263H95.5998V71.858C95.5998 84.9675 84.9673 95.5999 71.8579 95.5999Z" fill="#FFA800"/>
<path d="M71.8579 47.7736H47.8262V23.7419C47.8262 10.6325 58.4586 0 71.5681 0H95.5998V24.0317C95.5998 37.1412 84.9673 47.7736 71.8579 47.7736Z" fill="#C8FFD4"/>
</svg>
