<svg width="45" height="45" viewBox="0 0 45 45" fill="none" xmlns="http://www.w3.org/2000/svg">
<path d="M22.5 3.75C20.0377 3.75 17.5995 4.23498 15.3247 5.17726C13.0498 6.11953 10.9828 7.50065 9.24175 9.24175C5.72544 12.7581 3.75 17.5272 3.75 22.5C3.75 30.7875 9.13125 37.8187 16.575 40.3125C17.5125 40.4625 17.8125 39.8812 17.8125 39.375V36.2062C12.6187 37.3312 11.5125 33.6937 11.5125 33.6937C10.65 31.5187 9.43125 30.9375 9.43125 30.9375C7.725 29.775 9.5625 29.8125 9.5625 29.8125C11.4375 29.9437 12.4313 31.7437 12.4313 31.7437C14.0625 34.5937 16.8188 33.75 17.8875 33.3C18.0562 32.0812 18.5437 31.2562 19.0688 30.7875C14.9062 30.3187 10.5375 28.7062 10.5375 21.5625C10.5375 19.4812 11.25 17.8125 12.4688 16.4812C12.2812 16.0125 11.625 14.0625 12.6562 11.5312C12.6562 11.5312 14.2312 11.025 17.8125 13.4437C19.2937 13.0312 20.9062 12.825 22.5 12.825C24.0938 12.825 25.7062 13.0312 27.1875 13.4437C30.7687 11.025 32.3438 11.5312 32.3438 11.5312C33.375 14.0625 32.7188 16.0125 32.5312 16.4812C33.75 17.8125 34.4625 19.4812 34.4625 21.5625C34.4625 28.725 30.075 30.3 25.8938 30.7687C26.5688 31.35 27.1875 32.4937 27.1875 34.2375V39.375C27.1875 39.8812 27.4875 40.4812 28.4438 40.3125C35.8875 37.8 41.25 30.7875 41.25 22.5C41.25 20.0377 40.765 17.5995 39.8227 15.3247C38.8805 13.0498 37.4994 10.9828 35.7583 9.24175C34.0172 7.50065 31.9502 6.11953 29.6753 5.17726C27.4005 4.23498 24.9623 3.75 22.5 3.75Z" fill="black"/>
</svg>
