<svg width="313" height="183" viewBox="0 0 313 183" fill="none" xmlns="http://www.w3.org/2000/svg">
<path d="M312.516 90.2763L222.763 0.517046C222.075 -0.172349 220.972 -0.172349 220.353 0.517046C210.158 10.7201 201.961 22.3019 195.968 34.6421L161.872 0.517046C161.183 -0.172349 160.081 -0.172349 159.461 0.517046C149.267 10.7201 141.07 22.3019 135.077 34.6421L100.981 0.517046C100.292 -0.172349 99.1896 -0.172349 98.5697 0.517046C88.3752 10.7201 80.1783 22.3019 74.1856 34.6421L40.0203 0.517046C39.3314 -0.172349 38.2293 -0.172349 37.6094 0.517046C-12.5365 50.705 -12.5365 132.329 37.6094 182.517C37.9538 182.862 38.3671 183 38.8493 183C39.3314 183 39.7447 182.862 40.0891 182.517L74.1856 148.392C80.2472 160.733 88.3752 172.245 98.5697 182.517C98.9141 182.862 99.3274 183 99.8096 183C100.292 183 100.705 182.793 101.049 182.517L135.146 148.392C141.207 160.733 149.335 172.245 159.53 182.517C159.874 182.862 160.288 183 160.77 183C161.252 183 161.665 182.793 162.01 182.517L196.106 148.392C202.168 160.733 210.296 172.245 220.49 182.517C220.835 182.862 221.248 183 221.73 183C222.212 183 222.626 182.793 222.97 182.517L312.654 92.7581C313.136 92.0687 313.136 90.9657 312.516 90.2763ZM160.632 4.17084L194.315 37.8823C187.84 52.1528 184.052 67.3195 183.019 82.624L137.557 37.1239C143.274 25.3353 150.989 14.1671 160.632 4.17084ZM125.296 90.7589L126.053 91.5172L125.296 92.2756C125.296 91.793 125.296 91.2415 125.296 90.7589ZM121.921 95.7225L75.1499 142.532C60.7536 110.2 60.8225 72.9036 75.1499 40.5709L121.921 87.3809C121.852 90.1384 121.852 92.896 121.921 95.7225ZM129.704 92.7581C130.049 92.4134 130.186 91.9998 130.186 91.5172C130.186 91.0347 129.98 90.621 129.704 90.2763L125.365 85.9331C126.053 70.4217 129.635 54.9793 136.041 40.502L182.812 87.3119C182.743 90.0695 182.743 92.896 182.812 95.6536L136.041 142.464C129.635 127.986 126.053 112.544 125.365 97.0324L129.704 92.7581ZM186.187 90.7589L186.945 91.5172L186.187 92.2756C186.187 91.793 186.187 91.2415 186.187 90.7589ZM190.665 92.7581C191.353 92.0687 191.353 90.9657 190.665 90.3453L186.325 86.0021C187.014 70.4907 190.527 55.0482 197.002 40.5709L247.905 91.5172L197.002 142.464C190.596 127.986 187.014 112.544 186.325 97.0324L190.665 92.7581ZM99.7407 4.17084L133.424 37.8823C126.949 52.1528 123.16 67.3195 122.127 82.624L76.6653 37.1239C82.3825 25.3353 90.0972 14.1671 99.7407 4.17084ZM38.8493 178.864C-8.33469 130.33 -8.33469 52.7043 38.8493 4.23978L72.5324 37.9512C57.034 71.8695 57.034 111.165 72.5324 145.152L38.8493 178.864ZM99.7407 178.864C90.0972 168.936 82.3825 157.768 76.6653 145.842L122.127 100.341C123.16 115.715 126.949 130.882 133.424 145.083L99.7407 178.864ZM160.632 178.864C150.989 168.936 143.274 157.768 137.557 145.842L183.019 100.341C184.052 115.715 187.84 130.882 194.315 145.083L160.632 178.864ZM221.592 178.864C211.949 168.936 204.234 157.768 198.517 145.842L251.556 92.7581C251.9 92.4134 252.038 91.9998 252.038 91.5172C252.038 91.0347 251.831 90.621 251.556 90.2763L198.517 37.1929C204.234 25.2663 211.88 14.0981 221.592 4.17084L308.865 91.5172L221.592 178.864Z" fill="black" fill-opacity="0.4"/>
</svg>
