<svg width="557" height="241" viewBox="0 0 557 241" fill="none" xmlns="http://www.w3.org/2000/svg">
<path d="M205.563 -157C228.704 -157 251.845 -152.031 269.483 -148.102C308.635 -139.552 346.662 -130.77 380.185 -116.672C385.314 -114.477 390.317 -112.281 395.196 -110.201C412.958 -102.344 429.845 -94.9482 448.983 -90.5571C457.74 -88.4772 467.371 -87.2061 477.503 -85.8195C499.019 -82.9307 521.284 -79.9263 537.671 -69.0644C566.316 -50.2292 556.309 -8.74579 550.304 15.9825C535.044 79.5365 507.399 125.642 463.369 160.886C418.587 196.707 361.797 213.116 306.759 228.946C301.755 230.333 296.877 231.835 291.873 233.222C259.851 242.582 233.958 241.773 198.058 239.577C191.553 239.23 185.049 238.999 178.669 238.768C149.274 237.959 121.629 237.151 98.613 215.889C75.5969 194.627 66.8408 165.161 58.3348 136.504C56.0832 128.762 53.7066 120.904 51.0797 113.278C45.4508 96.7539 37.4452 80.6921 29.6898 65.208C22.8099 51.4572 15.6799 37.1287 10.3011 22.569C0.169067 -4.47032 -8.46198 -38.0962 14.9294 -58.8957C26.9379 -69.5266 42.949 -76.6908 58.4599 -83.624C68.4669 -88.1305 78.8492 -92.7527 87.8555 -98.1836C98.2378 -104.539 107.995 -112.281 117.376 -119.792C131.011 -130.654 145.146 -141.978 161.407 -149.142C175.292 -154.805 190.427 -157 205.563 -157ZM234.333 240.039C253.722 240.039 271.484 238.191 291.748 232.297C296.752 230.911 301.63 229.408 306.634 228.022C361.422 212.191 418.212 195.898 462.743 160.192C506.649 125.064 534.043 79.1899 549.304 15.8669C555.183 -8.63025 565.065 -49.6515 537.045 -68.0244C520.909 -78.6552 498.768 -81.6596 477.378 -84.5484C467.246 -85.9351 457.615 -87.2061 448.733 -89.2861C429.47 -93.7927 412.583 -101.188 394.695 -109.046C389.817 -111.241 384.688 -113.437 379.685 -115.517C346.161 -129.614 308.26 -138.396 269.107 -146.947C230.706 -155.267 193.555 -161.622 162.032 -147.64C145.896 -140.476 131.886 -129.267 118.252 -118.521C108.745 -111.01 98.9883 -103.152 88.606 -96.797C79.5997 -91.2505 69.2174 -86.6284 59.0853 -82.1218C43.6996 -75.1886 27.6884 -68.1399 15.805 -57.5091C-7.086 -37.1718 1.54504 -4.0081 11.5521 22.6846C16.9308 37.1287 24.0608 51.3417 30.9406 65.208C38.696 80.8076 46.7017 96.8694 52.3306 113.394C54.9575 120.904 57.3341 128.878 59.5857 136.62C68.0916 165.046 76.8478 194.396 99.4886 215.427C122.255 236.226 149.774 237.035 178.794 237.844C185.174 238.075 191.678 238.191 198.183 238.653C211.317 239.346 223.075 240.039 234.333 240.039Z" fill="black" fill-opacity="0.4"/>
<path d="M211.817 -141.747C230.33 -141.747 249.344 -138.28 267.857 -134.121C305.383 -125.57 335.529 -115.632 360.171 -103.73L362.798 -102.459C382.187 -93.0993 400.575 -84.2018 422.34 -79.1174C430.846 -77.153 439.977 -75.882 449.734 -74.4953C469.248 -71.722 489.387 -68.9488 505.273 -60.0512C527.914 -47.456 535.669 -21.4566 528.414 17.3691C517.782 74.1055 492.014 118.131 449.984 151.873C411.832 182.494 363.298 198.209 316.266 213.462C308.51 216.004 300.379 218.662 292.499 221.204C265.23 230.333 232.832 235.071 203.687 234.146C178.794 233.337 144.27 227.906 121.379 206.645C100.865 187.578 91.1078 162.041 81.6011 137.197C78.8492 130.033 76.0973 122.753 73.0952 115.705C67.8415 103.34 61.5871 91.0918 55.708 79.1899C47.0769 61.8569 38.0706 43.9463 31.566 25.4578C22.3096 -0.772659 15.5548 -30.1231 34.4431 -49.7671C45.4508 -61.0912 61.7122 -68.8333 77.3482 -76.3442C86.1043 -80.5041 94.235 -84.4329 101.615 -88.9394C110.496 -94.3704 119.002 -100.841 127.383 -107.081C140.392 -116.903 153.902 -127.072 168.912 -133.658C182.297 -139.436 196.932 -141.747 211.817 -141.747ZM267.481 -132.965C234.333 -140.476 199.434 -145.676 169.288 -132.503C154.277 -126.032 140.893 -115.863 128.009 -106.157C119.628 -99.9169 110.997 -93.3304 102.115 -87.8994C94.7353 -83.3929 86.4795 -79.4641 77.7234 -75.3042C62.2125 -67.9088 46.0762 -60.2823 35.1936 -49.0737C16.6806 -30.0075 23.4353 -0.888199 32.5667 24.9956C39.0713 43.4841 48.0776 61.3947 56.7087 78.6121C62.7129 90.514 68.8422 102.763 74.0959 115.242C77.098 122.291 79.975 129.686 82.6018 136.735C91.9834 161.348 101.74 186.885 122.129 205.72C144.77 226.751 178.919 232.182 203.562 232.991C232.582 233.915 264.729 229.293 291.873 220.164C299.754 217.507 307.76 214.964 315.64 212.422C362.548 197.169 410.957 181.454 448.983 151.064C490.888 117.438 516.406 73.6433 527.038 17.2536C534.293 -20.9944 526.663 -46.6471 504.522 -59.0113C488.886 -67.6777 468.872 -70.5665 449.484 -73.2242C439.727 -74.6109 430.596 -75.882 421.965 -77.8463C399.949 -82.9307 381.561 -91.8282 362.173 -101.188L359.546 -102.459C335.029 -114.477 304.883 -124.414 267.481 -132.965Z" fill="black" fill-opacity="0.4"/>
<path d="M217.822 -124.761C231.456 -124.761 246.592 -122.681 263.353 -118.405C286.62 -112.512 307.634 -102.228 327.899 -92.1749C348.038 -82.2374 368.927 -71.8376 391.818 -66.1755C400.074 -64.0956 408.58 -62.7089 417.712 -61.2068C435.474 -58.2024 453.737 -55.198 469.123 -47.3404C499.519 -31.8564 502.521 1.76953 501.645 20.3735C499.269 68.2124 478.254 106.807 437.225 138.353C400.95 166.317 353.792 185.614 308.135 204.218C303.131 206.298 298.128 208.378 293.124 210.342C246.717 229.524 182.922 237.035 143.019 200.867C124.756 184.343 114.374 162.157 104.367 140.664C101.865 135.349 99.2385 129.686 96.6117 124.371C93.7347 118.593 90.7326 112.816 87.8555 107.038C75.3468 82.5409 62.4627 57.2348 54.207 31.4666C46.2014 6.62273 39.3215 -21.6877 58.4599 -42.6028C68.2168 -53.3492 83.1022 -60.8601 97.4873 -68.2555C104.242 -71.722 110.621 -74.9575 116.501 -78.5397C123.631 -82.9307 130.886 -88.015 137.765 -92.8682C151.775 -102.806 166.16 -112.974 182.172 -118.983C192.804 -122.796 204.562 -124.761 217.822 -124.761ZM216.946 225.249C243.089 225.249 269.858 218.662 292.624 209.302C297.627 207.222 302.631 205.142 307.635 203.178C399.949 165.392 495.266 126.451 500.395 20.3735C501.27 2.00064 498.268 -31.163 468.372 -46.3004C453.236 -54.0425 434.974 -57.0468 417.336 -60.0512C408.705 -61.5534 399.699 -63.0556 391.443 -65.02C368.427 -70.6821 347.537 -81.0818 327.273 -91.1349C307.009 -101.188 286.119 -111.472 262.978 -117.25C230.205 -125.454 203.812 -125.57 182.547 -117.712C166.661 -111.819 152.276 -101.65 138.391 -91.8282C131.386 -86.8595 124.256 -81.7751 117.001 -77.3841C111.122 -73.802 104.742 -70.5665 97.9877 -67.0999C83.7276 -59.8201 68.9673 -52.3092 59.3356 -41.6783C40.5724 -21.2255 47.4522 6.7383 55.3327 31.351C63.5885 57.1193 76.4725 82.3098 88.8562 106.807C91.7332 112.585 94.7353 118.362 97.6123 124.14C100.239 129.455 102.866 135.002 105.368 140.433C115.25 161.81 125.632 183.881 143.77 200.289C163.909 218.315 190.052 225.249 216.946 225.249Z" fill="black" fill-opacity="0.4"/>
<path d="M227.578 -106.157C236.835 -106.157 246.592 -104.77 257.099 -101.766C276.363 -96.2192 292.624 -86.2817 308.385 -76.6908C323.896 -67.2155 340.032 -57.3935 358.92 -51.9625C365.8 -49.9981 372.805 -48.1493 379.685 -46.416C421.714 -35.6696 465.12 -24.461 471.875 24.7645C477.128 62.7814 463.869 95.1362 431.346 123.562C402.951 148.406 365.05 166.432 328.274 183.881C316.14 189.658 304.757 195.089 293.875 200.636C240.212 228.253 196.306 227.56 163.534 198.556C117.376 157.766 90.3572 82.0787 78.3488 40.5952C70.4683 13.3248 65.5899 -14.639 83.4774 -34.283C92.3587 -43.9894 105.368 -51.1537 118.127 -58.0869C123.38 -60.9757 128.259 -63.6334 132.887 -66.4066C136.515 -68.6021 140.017 -70.7976 143.52 -72.9932C171.414 -90.5572 196.181 -106.157 227.578 -106.157ZM222.7 219.587C243.84 219.587 267.481 212.884 293.5 199.596C304.382 194.049 315.765 188.618 327.899 182.841C400.324 148.406 482.507 109.465 470.749 24.9956C463.994 -23.5365 422.965 -34.0519 379.435 -45.2605C372.555 -46.9938 365.425 -48.8426 358.545 -50.807C339.532 -56.238 323.396 -66.1755 307.76 -75.6508C292.124 -85.2417 275.862 -95.1793 256.724 -100.61C210.566 -113.783 179.795 -94.4859 144.27 -72.0687C140.768 -69.8732 137.265 -67.6777 133.638 -65.4822C129.009 -62.5934 124.131 -59.9357 118.877 -57.0468C106.243 -50.2292 93.3594 -43.065 84.6032 -33.4741C67.091 -14.1768 71.9694 13.4403 79.7248 40.3641C91.7332 81.732 118.627 157.188 164.534 197.747C181.171 212.307 200.559 219.587 222.7 219.587Z" fill="black" fill-opacity="0.4"/>
<path d="M228.204 -88.1305C235.209 -88.1305 242.339 -86.975 249.844 -84.4328C265.105 -79.2329 276.738 -69.8732 287.996 -60.6289C299.129 -51.6158 310.637 -42.1405 325.897 -36.9406C333.778 -34.2829 342.159 -31.7407 350.289 -29.3141C387.691 -18.2211 426.218 -6.66579 440.603 30.08C454.112 64.6303 442.979 95.9451 407.705 122.984C396.947 131.304 385.439 137.082 373.305 143.206C368.927 145.402 364.424 147.713 359.921 150.024C345.036 157.997 330.776 167.703 317.016 176.948C309.886 181.801 302.506 186.77 295.251 191.392C272.86 205.72 255.598 213.116 239.462 215.427C218.697 218.431 200.309 212.769 183.172 198.094C137.015 158.575 113.624 89.0119 103.742 51.1106C97.2371 26.1512 92.6089 -1.92813 106.619 -21.4565C114.499 -32.4341 127.633 -40.0605 140.517 -47.5715C144.02 -49.6514 147.397 -51.6158 150.524 -53.5802C154.152 -55.8913 157.905 -58.3179 161.532 -60.6289C182.422 -74.2642 203.687 -88.1305 228.204 -88.1305ZM229.079 215.196C251.345 215.196 273.486 203.871 294.625 190.467C302.006 185.845 309.261 180.876 316.391 176.023C330.15 166.663 344.41 157.072 359.421 148.984C363.924 146.557 368.427 144.362 372.805 142.051C384.939 135.926 396.322 130.149 407.079 121.944C441.854 95.2517 452.736 64.3991 439.602 30.3111C425.467 -5.97249 387.19 -17.4122 350.164 -28.3897C342.034 -30.8163 333.528 -33.3585 325.647 -36.0162C310.261 -41.3316 298.628 -50.8069 287.37 -59.9356C276.237 -68.9487 264.729 -78.4241 249.594 -83.5084C216.07 -94.8326 188.801 -77.0374 162.533 -59.9356C158.905 -57.6245 155.153 -55.0824 151.525 -52.7714C148.398 -50.8069 145.021 -48.8426 141.518 -46.7626C128.884 -39.3672 115.75 -31.7408 107.995 -20.9943C94.235 -1.81259 98.8632 26.0356 105.243 50.6484C115 88.4341 138.391 157.766 184.298 197.054C199.058 210.111 214.194 215.196 229.079 215.196Z" fill="black" fill-opacity="0.4"/>
<path d="M227.703 -70.3354C232.582 -70.3354 237.585 -69.411 242.464 -67.1C253.597 -61.9001 260.852 -53.3492 267.857 -45.145C275.112 -36.5941 282.617 -27.6965 294.625 -22.381C306.634 -17.0656 319.518 -13.0213 331.901 -9.09247C361.923 0.382858 390.192 9.28041 408.83 35.2798C429.47 64.168 424.341 90.2829 393.57 113.047C380.06 122.984 366.05 132.575 352.541 141.935C334.028 154.646 314.764 167.934 296.502 182.147C268.232 204.334 235.334 225.595 201.185 198.094C178.544 179.952 147.772 141.588 129.385 61.7414C119.628 19.6802 125.007 2.0006 131.511 -9.67023C138.266 -21.8033 150.775 -29.6609 162.908 -37.1718C164.784 -38.3273 166.661 -39.4829 168.537 -40.754C172.039 -42.9495 175.667 -45.6071 179.545 -48.3804C193.68 -58.318 210.566 -70.3354 227.703 -70.3354ZM235.209 209.996C256.724 209.996 277.238 195.898 295.751 181.339C314.014 167.01 333.152 153.837 351.79 141.011C365.3 131.766 379.31 122.06 392.819 112.122C423.341 89.5896 428.219 64.6302 407.83 35.9731C389.442 10.2048 361.422 1.42284 331.526 -7.93694C319.017 -11.8657 306.133 -15.9101 294.125 -21.3411C281.866 -26.772 274.236 -35.7852 266.981 -44.4516C259.726 -53.0025 252.971 -60.9757 242.089 -66.06C220.824 -75.9976 198.433 -60.1668 180.42 -47.3405C176.543 -44.5672 172.79 -41.9095 169.288 -39.714C167.411 -38.5584 165.535 -37.4029 163.659 -36.1319C151.65 -28.6209 139.267 -20.8789 132.637 -8.97694C121.254 11.5914 125.257 38.2841 130.635 61.6258C140.768 105.536 161.407 164.699 202.061 197.4C213.193 206.413 224.326 209.996 235.209 209.996Z" fill="black" fill-opacity="0.4"/>
<path d="M226.953 -52.6559C230.08 -52.6559 232.957 -51.847 235.584 -49.8826C242.714 -44.6827 246.467 -37.634 250.219 -30.8164C254.472 -22.8432 258.975 -14.639 268.607 -8.97691C283.618 -0.310455 300.129 5.12054 316.015 10.436C337.655 17.6003 359.921 24.9956 377.684 40.2486C391.068 51.8039 397.948 64.0525 397.322 75.6077C396.822 85.7764 390.818 95.1362 379.31 103.225C350.414 123.909 326.147 145.979 297.502 172.672C280.24 188.734 248.218 218.547 217.196 196.36C188.801 176.023 167.036 132.922 154.152 71.679C145.646 30.6577 147.647 -2.04375 185.174 -28.6209C187.05 -30.0075 189.427 -31.8563 192.179 -34.0518C202.061 -41.6783 215.57 -52.6559 226.953 -52.6559ZM240.838 203.178C263.103 203.178 283.993 183.765 296.752 171.979C325.397 145.286 349.664 123.215 378.684 102.532C389.817 94.5584 395.696 85.5453 396.197 75.7233C396.697 64.3991 390.067 52.4972 376.933 41.173C359.296 26.0356 338.031 18.9869 315.64 11.5915C299.629 6.27608 282.992 0.729553 267.982 -7.9369C257.975 -13.7146 253.472 -22.1499 249.093 -30.2386C245.341 -37.2873 241.713 -43.8738 234.833 -48.9581C223.325 -57.3935 205.188 -42.7183 193.179 -33.0119C190.427 -30.8164 188.051 -28.852 186.049 -27.4654C149.023 -1.23488 147.022 31.1199 155.528 71.679C168.287 132.575 189.927 175.445 218.072 195.667C225.702 200.983 233.332 203.178 240.838 203.178Z" fill="black" fill-opacity="0.4"/>
<path d="M226.578 -34.8607C226.703 -34.8607 226.828 -34.8607 226.953 -34.8607C228.329 -34.7452 229.33 -34.2829 230.08 -33.4741C233.332 -29.7764 235.084 -24.9232 236.96 -19.9544C239.712 -12.3279 242.714 -4.47032 251.22 1.65398C265.855 11.9382 284.493 18.4091 302.506 24.5334C318.642 30.0799 335.279 35.8576 349.038 44.2929C364.8 54.1149 373.18 63.4747 374.431 73.0656C375.307 79.9988 372.43 87.0475 365.675 93.9806C359.045 100.798 352.291 107.5 345.661 114.202C330.025 129.918 313.889 146.21 298.503 162.503C283.367 178.45 258.1 205.258 231.706 189.312C207.439 174.636 189.427 137.775 178.294 79.8832C174.291 59.3148 173.541 42.9063 175.792 28.3467C178.669 9.39601 186.675 -5.74141 200.059 -17.99C207.064 -24.3454 219.698 -34.8607 226.578 -34.8607ZM248.593 193.125C268.107 193.125 285.994 174.29 297.627 161.926C313.013 145.633 329.15 129.34 344.785 113.509C351.415 106.807 358.17 99.9894 364.8 93.2873C371.304 86.7008 374.181 79.9988 373.305 73.2967C372.055 64.168 363.674 54.6927 348.413 45.3329C334.778 36.8976 318.142 31.2355 302.131 25.6889C283.993 19.4491 265.23 12.9781 250.469 2.57838C241.588 -3.66147 238.461 -12.0968 235.709 -19.4922C233.833 -24.4609 232.207 -29.0831 228.954 -32.6652C228.454 -33.243 227.703 -33.5896 226.703 -33.5896C222.2 -33.8207 212.443 -27.5809 200.81 -17.0656C170.538 10.5515 173.415 49.2617 179.295 79.8832C190.427 137.544 208.19 174.059 232.207 188.503C237.836 191.738 243.339 193.125 248.593 193.125Z" fill="black" fill-opacity="0.4"/>
<path d="M225.577 -18.9144C226.077 -18.9144 226.453 -18.6833 226.703 -18.4522C237.335 -3.77701 294.876 32.5066 324.021 46.7196C342.284 55.6171 359.796 67.5191 349.914 87.7408C341.908 104.149 326.523 121.02 312.888 135.926C308.01 141.357 303.381 146.326 299.254 151.295C286.62 166.201 267.481 188.618 244.465 175.099C216.821 158.806 206.188 115.82 200.685 84.9675C193.805 46.8351 197.432 17.3691 211.567 -4.93256C214.444 -9.67021 222.45 -18.7989 225.577 -18.9144ZM258.6 178.103C274.736 178.103 288.371 162.041 298.128 150.602C302.256 145.748 306.884 140.664 311.887 135.233C325.397 120.327 340.783 103.572 348.663 87.2786C358.17 67.9813 341.158 56.426 323.396 47.7595C294.125 33.5465 236.335 -3.08369 225.702 -17.8745C224.451 -18.3367 216.821 -11.1724 212.568 -4.58588C198.558 17.4847 195.056 46.604 201.81 84.5053C207.314 115.242 217.822 157.881 245.091 173.943C249.719 176.948 254.222 178.103 258.6 178.103Z" fill="black" fill-opacity="0.4"/>
<path d="M225.702 -5.04807L226.077 -4.81699C227.203 -4.23923 231.206 -1.23486 237.21 3.15614C254.973 16.0981 288.121 40.0175 303.632 47.5284C318.017 54.5772 326.398 63.0125 329.024 73.2967C334.153 93.5184 315.515 117.322 299.003 138.237L298.878 138.468C287.12 153.375 275.362 159.73 264.104 157.304C240.963 152.335 224.826 110.851 220.198 85.7764C218.947 78.8432 220.448 51.8039 221.574 36.3198C221.574 35.9732 224.326 -4.12367 225.452 -4.81699L225.702 -5.04807ZM268.857 156.61C278.239 156.61 287.996 150.255 297.878 137.66L298.003 137.428C314.264 116.745 332.777 93.1718 327.774 73.4123C325.272 63.4747 317.141 55.2705 303.131 48.3373C287.62 40.8264 254.347 16.6758 236.585 3.84947C231.706 0.267334 227.954 -2.39037 226.202 -3.5459C224.952 4.5428 219.323 74.1056 221.449 85.4297C226.077 110.158 241.838 151.179 264.479 156.033C265.855 156.495 267.356 156.61 268.857 156.61Z" fill="black" fill-opacity="0.4"/>
<path d="M230.33 10.436L230.581 10.5516C230.956 10.7827 270.859 39.5553 288.746 49.8395C301.255 57.1193 308.76 66.3635 310.887 77.5722C313.514 91.3229 307.76 107.5 294.5 123.1C286.244 132.806 277.989 136.966 269.858 135.233C261.852 133.615 254.097 126.22 247.092 113.971C239.712 100.914 236.084 87.3941 235.209 83.5809C230.08 62.5503 228.329 12.747 229.58 10.7826L229.705 10.5516L230.33 10.436ZM273.36 134.424C279.99 134.424 286.745 130.38 293.5 122.407C306.509 107.038 312.138 91.2074 309.636 77.8033C307.509 66.9413 300.254 57.9282 288.121 50.8795C271.609 41.2886 236.335 16.2136 230.706 12.1693C230.08 18.6402 231.331 62.2036 236.585 83.4654C241.088 101.954 253.722 130.842 270.233 134.193C271.109 134.309 272.235 134.424 273.36 134.424Z" fill="black" fill-opacity="0.4"/>
<path d="M238.836 27.8844C241.713 27.8844 250.97 34.3554 269.233 47.9906C272.36 50.3017 275.237 52.4972 277.739 54.2305C295.751 67.2879 299.379 89.9363 285.994 105.651C281.491 110.967 276.738 113.162 271.734 112.354C258.975 110.158 248.843 87.7408 246.091 79.3054C244.09 73.2967 241.713 61.9725 239.712 49.1462C236.585 28.8089 237.836 28.2311 238.211 28.1155C238.461 27.8844 238.586 27.8844 238.836 27.8844ZM273.861 111.314C277.739 111.314 281.491 109.118 285.119 104.843C298.003 89.5896 294.5 67.7501 276.988 55.0393C274.486 53.1905 271.609 51.1105 268.482 48.7995C258.475 41.2886 241.838 28.9244 238.961 28.9244C238.336 32.1599 242.839 65.5546 247.342 78.8432C250.094 87.163 259.976 109.118 272.11 111.082C272.735 111.314 273.235 111.314 273.861 111.314Z" fill="black" fill-opacity="0.4"/>
<path d="M250.97 46.3729C251.095 46.3729 251.22 46.3729 251.345 46.3729C255.223 46.7196 262.603 52.1505 269.608 60.0081C277.989 69.3679 280.365 81.0387 274.987 86.7008C273.36 88.4341 271.484 89.1274 269.233 88.7808C264.229 88.0874 258.6 82.1943 254.597 73.4123C249.469 62.3192 246.091 49.2617 249.344 46.7196C249.719 46.4885 250.219 46.3729 250.97 46.3729ZM270.233 87.7408C271.734 87.7408 272.985 87.163 274.111 86.0075C278.864 80.8076 276.488 69.4835 268.607 60.817C261.977 53.4216 254.722 47.8751 251.22 47.5284C250.72 47.5284 250.344 47.5284 250.094 47.7595C248.218 49.1462 249.469 59.5459 255.723 73.0656C259.476 81.2698 264.855 87.0475 269.358 87.7408C269.608 87.7408 269.983 87.7408 270.233 87.7408Z" fill="black" fill-opacity="0.4"/>
</svg>
