<svg width="100" height="100" viewBox="0 0 100 100" fill="none" xmlns="http://www.w3.org/2000/svg">
<g filter="url(#filter0_d_21_1991)">
<path d="M24.84 76.0025C22.52 75.6425 20.4 75.1625 18.48 74.5625C16.56 73.9625 14.86 73.1825 13.38 72.2225C11.94 71.3025 10.82 70.1425 10.02 68.7425C9.26001 67.3825 8.88001 65.7825 8.88001 63.9425L8.94001 58.2425C8.94001 56.4425 8.38001 55.2025 7.26001 54.5225C6.14001 53.8025 4.48001 53.4425 2.28 53.4425H0V43.8425H2.4C4.60001 43.8425 6.24001 43.4425 7.32001 42.6425C8.40001 41.8025 8.94001 40.5225 8.94001 38.8025L8.88001 33.1025C8.84001 29.8625 10.1 27.2825 12.66 25.3625C15.26 23.4025 19.32 21.9625 24.84 21.0425L27.36 29.7425C25.88 30.0225 24.56 30.3425 23.4 30.7025C22.28 31.0225 21.38 31.5625 20.7 32.3225C20.06 33.0825 19.76 34.1625 19.8 35.5625L19.92 39.6425C19.96 42.0025 19.04 43.9825 17.16 45.5825C15.32 47.1425 12.44 48.3025 8.52001 49.0625V47.9225C12.44 48.7625 15.32 49.9625 17.16 51.5225C19.04 53.0825 19.96 55.0425 19.92 57.4025L19.8 61.4825C19.76 62.8425 20.04 63.8225 20.64 64.4225C21.28 65.0625 22.18 65.5225 23.34 65.8025C24.5 66.1225 25.84 66.4425 27.36 66.7625L24.84 76.0025ZM71.1614 76.0025L68.5814 67.3025C70.1014 67.0225 71.4214 66.7025 72.5414 66.3425C73.7014 66.0225 74.6014 65.4825 75.2414 64.7225C75.9214 63.9625 76.2414 62.8825 76.2014 61.4825L76.0814 57.4025C76.0814 55.0425 77.0014 53.0825 78.8414 51.5225C80.6814 49.9225 83.5414 48.7425 87.4214 47.9825V49.1225C83.5414 48.2825 80.6814 47.0825 78.8414 45.5225C77.0014 43.9625 76.0814 42.0025 76.0814 39.6425L76.2014 35.5625C76.2414 34.2025 75.9414 33.2225 75.3014 32.6225C74.7014 31.9825 73.8214 31.5225 72.6614 31.2425C71.5414 30.9225 70.1814 30.6025 68.5814 30.2825L71.1614 21.0425C73.4414 21.3625 75.5414 21.8225 77.4614 22.4225C79.4214 23.0225 81.1214 23.8025 82.5614 24.7625C84.0014 25.7225 85.1014 26.9025 85.8614 28.3025C86.6614 29.6625 87.0614 31.2625 87.0614 33.1025L87.0014 38.8025C87.0014 40.6025 87.5614 41.8625 88.6814 42.5825C89.8414 43.2625 91.5014 43.6025 93.6619 43.6025H96.0019V53.2025H93.5419C91.3814 53.2025 89.7414 53.6225 88.6214 54.4625C87.5414 55.2625 87.0014 56.5225 87.0014 58.2425L87.0614 63.9425C87.1014 67.1825 85.8414 69.7625 83.2814 71.6825C80.7214 73.6425 76.6814 75.0825 71.1614 76.0025Z" fill="#A388EE"/>
<path d="M75.959 71.1614C75.599 73.4814 75.119 75.6014 74.519 77.5214C73.919 79.4414 73.139 81.1414 72.179 82.6214C71.259 84.0614 70.099 85.1814 68.699 85.9814C67.339 86.7414 65.739 87.1214 63.899 87.1214L58.199 87.0614C56.399 87.0614 55.159 87.6214 54.479 88.7414C53.759 89.8614 53.399 91.5214 53.399 93.7215V96.0015H43.799V93.6015C43.799 91.4014 43.399 89.7614 42.599 88.6814C41.759 87.6014 40.479 87.0614 38.759 87.0614L33.059 87.1214C29.819 87.1614 27.239 85.9014 25.319 83.3414C23.359 80.7414 21.919 76.6814 20.999 71.1614L29.699 68.6414C29.979 70.1214 30.299 71.4414 30.659 72.6014C30.979 73.7214 31.519 74.6214 32.279 75.3014C33.039 75.9414 34.119 76.2414 35.519 76.2014L39.599 76.0814C41.959 76.0414 43.939 76.9614 45.539 78.8414C47.099 80.6814 48.259 83.5614 49.019 87.4814H47.879C48.719 83.5614 49.919 80.6814 51.479 78.8414C53.039 76.9614 54.999 76.0414 57.359 76.0814L61.439 76.2014C62.799 76.2414 63.779 75.9614 64.379 75.3614C65.019 74.7214 65.479 73.8214 65.759 72.6614C66.079 71.5014 66.399 70.1614 66.719 68.6414L75.959 71.1614ZM75.959 24.84L67.259 27.42C66.979 25.9 66.659 24.58 66.299 23.46C65.979 22.3 65.439 21.4 64.679 20.76C63.919 20.08 62.839 19.76 61.439 19.8L57.359 19.92C54.999 19.92 53.039 19 51.479 17.16C49.879 15.32 48.699 12.46 47.939 8.58H49.079C48.239 12.46 47.039 15.32 45.479 17.16C43.919 19 41.959 19.92 39.599 19.92L35.519 19.8C34.159 19.76 33.179 20.06 32.579 20.7C31.939 21.3 31.479 22.18 31.199 23.34C30.879 24.46 30.559 25.82 30.239 27.42L20.999 24.84C21.319 22.56 21.779 20.46 22.379 18.54C22.979 16.58 23.759 14.88 24.719 13.44C25.679 12 26.859 10.9 28.259 10.14C29.619 9.34 31.219 8.94 33.059 8.94L38.759 9C40.559 9 41.819 8.44 42.539 7.32C43.219 6.16 43.559 4.5 43.559 2.34V0H53.159V2.46C53.159 4.62 53.579 6.26 54.419 7.38C55.219 8.46 56.479 9 58.199 9L63.899 8.94C67.139 8.9 69.719 10.16 71.639 12.72C73.599 15.28 75.039 19.32 75.959 24.84Z" fill="#A388EE"/>
<path d="M30.5396 49.7225L41.3096 53.6525V57.9125L25.5596 51.8525V47.5625L41.3096 41.4725V45.7625L30.5396 49.7225ZM43.7443 58.9625L48.5443 35.4425H52.1743L47.4043 58.9625H43.7443ZM70.3939 51.8525L54.6439 57.9125V53.6525L65.4139 49.7225L54.6439 45.7625V41.4725L70.3939 47.5625V51.8525Z" fill="#A388EE"/>
</g>
<defs>
<filter id="filter0_d_21_1991" x="0" y="0" width="100.002" height="100.001" filterUnits="userSpaceOnUse" color-interpolation-filters="sRGB">
<feFlood flood-opacity="0" result="BackgroundImageFix"/>
<feColorMatrix in="SourceAlpha" type="matrix" values="0 0 0 0 0 0 0 0 0 0 0 0 0 0 0 0 0 0 127 0" result="hardAlpha"/>
<feOffset dx="4" dy="4"/>
<feComposite in2="hardAlpha" operator="out"/>
<feColorMatrix type="matrix" values="0 0 0 0 0 0 0 0 0 0 0 0 0 0 0 0 0 0 1 0"/>
<feBlend mode="normal" in2="BackgroundImageFix" result="effect1_dropShadow_21_1991"/>
<feBlend mode="normal" in="SourceGraphic" in2="effect1_dropShadow_21_1991" result="shape"/>
</filter>
</defs>
</svg>
