<svg width="65" height="73" viewBox="0 0 65 73" fill="none" xmlns="http://www.w3.org/2000/svg">
<circle cx="33" cy="42" r="30.07" fill="#FFA800" stroke="black" stroke-width="1.86"/>
<g clip-path="url(#clip0_21_955)">
<path d="M33.0815 42.4312C38.9082 42.4312 43.6317 37.7077 43.6317 31.8811C43.6317 26.0544 38.9082 21.3309 33.0815 21.3309C27.2548 21.3309 22.5314 26.0544 22.5314 31.8811C22.5314 37.7077 27.2548 42.4312 33.0815 42.4312Z" fill="#FFB6B6"/>
<path d="M27.0251 43.9914L26.5484 39.1733L36.0664 37.3936L41.6867 51.0778L31.9123 62.3184L24.948 48.6342L27.0251 43.9914Z" fill="#FFB6B6"/>
<path d="M26.3955 41.585L28.4764 42.0552C28.4764 42.0552 26.8406 36.8681 27.3959 36.3729C27.9511 35.8776 29.3117 36.6579 29.3117 36.6579L30.7414 38.2609L32.483 36.4878C32.483 36.4878 34.3737 34.1368 35.114 33.4765C35.8543 32.8162 34.6652 30.3653 34.6652 30.3653C34.6652 30.3653 45.6482 27.4038 41.5614 22.0767C41.5614 22.0767 39.1654 17.9 38.3851 19.2606C37.6048 20.6211 36.6743 18.4603 36.6743 18.4603L33.8332 19.0005C33.8332 19.0005 28.2258 15.6943 22.9037 22.7673C17.5817 29.8403 26.3955 41.585 26.3955 41.585Z" fill="#2F2E41"/>
<path d="M52.9236 57.7853C47.1579 62.4599 40.025 65 32.4999 65C25.6285 65 19.0833 62.8814 13.6084 58.9545C13.6182 58.8519 13.628 58.7505 13.6365 58.6491C13.7819 57.0607 13.9114 55.5164 13.9969 54.2359C14.328 49.2644 25.9266 45.9509 25.9266 45.9509C25.9266 45.9509 25.9792 46.0034 26.0842 46.095C26.7245 46.6571 29.3232 48.695 33.8806 49.2644C37.9443 49.7727 39.2822 47.362 39.6866 46.2074C39.8088 45.8556 39.8454 45.6198 39.8454 45.6198L51.7751 51.2535C52.5534 52.3653 52.8577 54.7601 52.9175 57.4517C52.92 57.5629 52.9224 57.6729 52.9236 57.7853Z" fill="#C8FFD4"/>
<circle cx="38.5666" cy="32.5" r="0.433333" fill="black"/>
<circle cx="42.0333" cy="30.7667" r="0.433333" fill="black"/>
<path d="M36.4082 32.377C36.3658 32.5775 36.5404 31.9409 36.7273 31.8495C36.7959 31.816 36.8455 31.7092 36.9079 31.6578C36.9792 31.5989 37.0519 31.5303 37.1299 31.4808C37.2706 31.3916 37.3857 31.2644 37.5529 31.2126C37.7764 31.1433 38.0767 31.188 38.311 31.2375" stroke="black" stroke-width="0.866667" stroke-linecap="round"/>
<path d="M40.7333 29.8107C40.7333 29.9752 40.7641 29.4462 40.8926 29.3434C40.9397 29.3057 40.9605 29.2136 41 29.1628C41.0451 29.1048 41.0898 29.0388 41.1416 28.987C41.235 28.8936 41.3026 28.7746 41.4224 28.7062C41.5825 28.6147 41.82 28.6 42.0077 28.6" stroke="black" stroke-width="0.866667" stroke-linecap="round"/>
<path d="M39.3258 35.1558C40.0584 35.1669 40.8427 34.6987 41.3579 34.0936C41.485 33.9443 41.5824 33.7427 41.7095 33.5934C41.7755 33.5159 41.8515 33.4547 41.8964 33.3503C41.9259 33.2818 41.9702 33.1362 42.0213 33.1063" stroke="#302323" stroke-width="0.866667" stroke-linecap="round"/>
<path d="M39.0159 35.52C39.0163 35.9506 39.1759 36.3496 39.5081 36.5349C39.7187 36.6525 40.0119 36.5174 40.2193 36.491C40.4269 36.4646 40.6025 36.3209 40.7817 36.216C40.9918 36.0931 41.2359 35.9867 41.4168 35.7953C41.5901 35.6121 41.825 35.5319 41.9629 35.2947C42.1046 35.051 42.2821 34.8828 42.4544 34.6805C42.6596 34.4394 42.6151 34.0454 42.5757 33.7431C42.5271 33.3703 42.3509 33.0498 42.0223 33.0449" stroke="#302323" stroke-width="0.866667" stroke-linecap="round"/>
</g>
<defs>
<clipPath id="clip0_21_955">
<rect width="65" height="65" fill="white"/>
</clipPath>
</defs>
</svg>
