<svg width="120" height="115" viewBox="0 0 120 115" fill="none" xmlns="http://www.w3.org/2000/svg">
<path d="M59.9998 0.416746C44.3644 0.257864 29.3056 6.31337 18.133 17.2524C6.96031 28.1915 0.587997 43.119 0.416504 58.7542C0.47675 71.1106 4.45161 83.1299 11.7702 93.0859C19.0887 103.042 29.3744 110.422 41.1498 114.167C44.129 114.708 45.2123 112.921 45.2123 111.35C45.2123 109.779 45.2123 106.313 45.2123 101.438C28.6373 104.958 25.1165 93.6376 25.1165 93.6376C24.0131 90.0837 21.6673 87.0457 18.5082 85.0792C13.0915 81.5042 18.9415 81.5584 18.9415 81.5584C20.8138 81.8087 22.6051 82.4797 24.1811 83.521C25.7571 84.5622 27.0769 85.9468 28.0415 87.5709C29.7225 90.4857 32.4806 92.6241 35.7224 93.5257C38.9641 94.4273 42.4303 94.0201 45.3748 92.3917C45.6777 89.4255 47.0209 86.6622 49.1665 84.5918C35.9498 83.1293 22.0832 78.1459 22.0832 55.7751C21.965 49.9396 24.1212 44.2869 28.0957 40.0126C26.2856 35.0025 26.4993 29.4843 28.6915 24.6292C28.6915 24.6292 33.729 23.0584 44.9415 30.5876C54.7018 27.9867 64.9729 27.9867 74.7332 30.5876C86.1082 23.0584 90.9832 24.6292 90.9832 24.6292C93.1754 29.4843 93.3891 35.0025 91.579 40.0126C95.6459 44.2086 97.9189 49.8233 97.9165 55.6667C97.9165 78.0917 83.9415 83.0209 70.8332 84.4834C72.2685 85.877 73.3772 87.5712 74.0797 89.4444C74.7821 91.3175 75.0608 93.323 74.8957 95.3167V111.296C74.8957 111.296 75.979 114.708 78.9582 114.113C90.7002 110.345 100.951 102.963 108.247 93.0208C115.543 83.079 119.511 71.0858 119.583 58.7542C119.412 43.119 113.039 28.1915 101.867 17.2524C90.694 6.31337 75.6352 0.257864 59.9998 0.416746Z" fill="white"/>
</svg>
