<svg width="311" height="94" viewBox="0 0 311 94" fill="none" xmlns="http://www.w3.org/2000/svg">
<circle cx="5" cy="33" r="5" fill="black" fill-opacity="0.6"/>
<circle cx="48" cy="33" r="5" fill="black" fill-opacity="0.6"/>
<circle cx="91" cy="33" r="5" fill="black" fill-opacity="0.6"/>
<circle cx="134" cy="33" r="5" fill="black" fill-opacity="0.6"/>
<circle cx="177" cy="33" r="5" fill="black" fill-opacity="0.6"/>
<circle cx="220" cy="33" r="5" fill="black" fill-opacity="0.6"/>
<circle cx="263" cy="33" r="5" fill="black" fill-opacity="0.6"/>
<circle cx="306" cy="33" r="5" fill="black" fill-opacity="0.6"/>
<circle cx="5" cy="61" r="5" fill="black" fill-opacity="0.6"/>
<circle cx="48" cy="61" r="5" fill="black" fill-opacity="0.6"/>
<circle cx="91" cy="61" r="5" fill="black" fill-opacity="0.6"/>
<circle cx="134" cy="61" r="5" fill="black" fill-opacity="0.6"/>
<circle cx="177" cy="61" r="5" fill="black" fill-opacity="0.6"/>
<circle cx="220" cy="61" r="5" fill="black" fill-opacity="0.6"/>
<circle cx="263" cy="61" r="5" fill="black" fill-opacity="0.6"/>
<circle cx="306" cy="61" r="5" fill="black" fill-opacity="0.6"/>
<circle cx="5" cy="89" r="5" fill="black" fill-opacity="0.6"/>
<circle cx="48" cy="89" r="5" fill="black" fill-opacity="0.6"/>
<circle cx="91" cy="89" r="5" fill="black" fill-opacity="0.6"/>
<circle cx="134" cy="89" r="5" fill="black" fill-opacity="0.6"/>
<circle cx="177" cy="89" r="5" fill="black" fill-opacity="0.6"/>
<circle cx="220" cy="89" r="5" fill="black" fill-opacity="0.6"/>
<circle cx="263" cy="89" r="5" fill="black" fill-opacity="0.6"/>
<circle cx="306" cy="89" r="5" fill="black" fill-opacity="0.6"/>
<circle cx="5" cy="5" r="5" fill="black" fill-opacity="0.6"/>
<circle cx="48" cy="5" r="5" fill="black" fill-opacity="0.6"/>
<circle cx="91" cy="5" r="5" fill="black" fill-opacity="0.6"/>
<circle cx="134" cy="5" r="5" fill="black" fill-opacity="0.6"/>
<circle cx="177" cy="5" r="5" fill="black" fill-opacity="0.6"/>
<circle cx="220" cy="5" r="5" fill="black" fill-opacity="0.6"/>
<circle cx="263" cy="5" r="5" fill="black" fill-opacity="0.6"/>
<circle cx="306" cy="5" r="5" fill="black" fill-opacity="0.6"/>
</svg>
