<svg width="302" height="236" viewBox="0 0 302 236" fill="none" xmlns="http://www.w3.org/2000/svg">
<g opacity="0.4">
<mask id="mask0_18_18780" style="mask-type:luminance" maskUnits="userSpaceOnUse" x="0" y="0" width="391" height="391">
<path d="M98.9192 364.831C126.419 380.431 159.419 387.231 194.819 382.531C159.319 387.231 126.419 380.431 98.9192 364.831C93.6192 361.731 86.5192 357.531 81.7192 353.831C77.6192 350.731 72.1192 346.531 68.1192 343.131C64.9192 340.431 60.6192 336.631 57.7192 333.531C54.2192 329.931 49.6192 325.031 46.3192 321.231C43.4192 317.931 39.8192 313.231 37.3192 309.731C33.2192 304.131 27.0192 294.931 20.9192 282.831C9.61916 260.331 4.71916 239.731 2.61916 226.431C1.11916 217.031 0.119156 204.431 0.119156 194.931C0.219156 181.731 0.819155 177.231 2.91916 162.031C3.61916 156.931 5.21916 150.331 6.51916 145.431C7.71916 141.031 9.51916 135.131 11.0192 130.831C15.7192 117.531 20.5192 108.331 24.0192 101.731C26.4192 97.1311 30.1192 91.3311 32.9192 87.0311C35.3192 83.3311 38.9192 78.7311 41.5192 75.1311C44.7192 70.7311 49.6192 65.4311 53.3192 61.4311C56.2192 58.3311 60.2192 54.3311 63.4192 51.4311C67.9192 47.4311 74.0191 42.4311 78.8192 38.7311C86.0191 33.1311 93.3192 28.9311 101.019 24.4311C106.819 21.0311 114.919 17.2311 121.219 14.7311C125.319 13.1311 130.719 11.0311 134.919 9.73108C139.119 8.33108 144.919 6.73108 149.219 5.73108C153.319 4.73108 158.719 3.53108 162.819 2.93108C168.419 2.03108 170.319 1.73108 179.219 0.831083C179.419 0.831083 184.819 0.331081 192.519 0.231081C198.019 0.131081 202.919 0.331082 205.219 0.431082C208.019 0.531082 214.519 1.03108 218.819 1.63108C225.819 2.53108 227.419 2.83108 234.819 4.23108C240.419 5.33108 251.319 8.13108 258.119 10.6311C263.319 12.5311 272.119 15.6311 281.419 20.3311C291.519 25.4311 300.019 30.4311 306.519 35.1311C313.119 39.9311 320.619 45.3311 330.019 54.3311C340.319 64.2311 347.419 73.0311 350.719 77.4311C354.119 81.9311 360.419 90.3311 367.619 103.731C371.919 111.731 376.419 122.931 379.719 131.431C381.519 136.131 383.319 142.631 384.519 147.531C385.619 152.031 386.719 158.131 387.719 162.731C388.719 167.731 389.419 174.631 389.819 179.731C390.319 185.531 390.719 193.331 390.419 199.131C390.119 203.931 389.919 210.231 389.419 215.031C388.919 220.131 388.119 227.031 386.919 232.031C385.919 236.531 384.719 242.631 383.419 247.031C382.019 251.931 379.919 258.531 378.119 263.331C372.119 279.431 365.019 291.431 364.219 292.731C359.719 300.331 352.919 309.931 347.619 317.031C344.319 321.331 339.319 326.631 335.719 330.631C332.919 333.831 328.719 337.631 325.519 340.431C320.919 344.431 314.719 349.531 309.919 353.031C306.119 355.831 300.919 359.331 296.919 361.731C291.119 365.131 283.219 369.431 277.119 372.331C271.819 374.931 259.819 379.831 248.219 383.031C242.819 384.531 228.619 388.331 211.319 389.731C202.619 390.431 189.019 391.031 171.719 388.931C166.019 388.231 161.319 387.431 161.319 387.331C156.519 386.431 156.519 386.431 148.719 384.631C142.719 383.231 135.519 380.831 132.419 379.831C128.319 378.531 123.019 376.531 119.119 374.731C112.719 371.931 104.819 367.931 98.9192 364.831Z" fill="white"/>
</mask>
<g mask="url(#mask0_18_18780)">
<path d="M216.519 389.231C209.419 389.231 202.019 387.131 194.719 383.031C149.819 389.031 107.119 376.631 74.5192 348.031C57.3192 332.931 43.8192 314.231 34.3192 292.431C24.5192 269.831 19.6192 245.031 19.6192 218.731V217.831L20.3192 218.231C67.6192 245.131 184.519 256.331 281.019 243.431L281.619 243.331V243.931C281.519 313.831 263.719 367.531 235.219 384.131C229.119 387.531 222.919 389.231 216.519 389.231ZM194.819 381.931L194.919 382.031C208.919 389.931 222.219 390.331 234.419 383.231C262.519 366.931 280.119 313.731 280.319 244.431C184.319 257.231 68.1192 246.031 20.3192 219.431C20.4192 245.331 25.3192 269.631 34.9192 291.931C44.3192 313.631 57.8192 332.231 74.9192 347.131C107.319 375.531 149.819 387.931 194.519 381.931H194.819Z" fill="black"/>
<path d="M216.519 389.231C209.319 389.231 201.919 387.131 194.519 382.931L193.219 382.231L194.719 382.031C215.819 379.231 236.019 372.431 254.819 362.531C270.919 337.131 280.419 294.831 280.519 243.931V243.531L280.919 243.431C315.919 238.731 344.319 231.331 363.319 222.331C367.419 205.931 369.719 188.831 369.719 171.631V170.731L370.419 171.131C385.319 179.531 392.119 189.031 390.319 198.431C388.619 207.231 379.419 215.631 364.119 222.931C348.819 283.131 307.919 335.531 255.419 363.331C249.419 372.631 242.619 379.731 235.019 384.131C229.119 387.531 222.919 389.231 216.519 389.231ZM196.319 382.731C209.819 389.931 222.619 390.131 234.519 383.231C241.619 379.131 248.019 372.631 253.719 364.231C235.719 373.531 216.419 379.931 196.319 382.731ZM281.419 244.331C281.319 294.231 272.119 335.931 256.419 361.531C307.719 333.831 347.719 282.431 362.919 223.431C343.919 232.331 315.919 239.731 281.419 244.331ZM370.719 172.431C370.619 189.231 368.419 205.731 364.519 221.731C379.019 214.631 387.819 206.631 389.419 198.231C391.119 189.431 384.619 180.531 370.719 172.431Z" fill="black"/>
<path d="M220.719 385.431C212.119 385.431 203.419 384.631 194.719 383.031L194.919 382.031C234.419 389.331 272.419 379.931 302.119 355.331C337.019 326.331 357.119 279.031 357.219 225.431H358.219C358.119 279.331 337.919 326.931 302.719 356.131C279.419 375.331 250.919 385.431 220.719 385.431Z" fill="black"/>
<path d="M199.319 383.031C197.819 383.031 196.219 383.031 194.719 382.931V381.931C247.919 383.131 297.619 363.831 334.619 327.731C369.619 293.531 389.019 247.931 389.119 199.331H390.119C390.019 248.131 370.619 294.031 335.319 328.431C299.219 363.731 251.119 383.031 199.319 383.031Z" fill="black"/>
<path d="M194.619 383.031L194.519 382.931C147.019 355.931 108.519 249.831 108.719 146.331V145.931L109.119 145.831C205.719 132.831 323.019 144.131 370.419 171.131L370.719 171.231V171.531C370.519 275.031 291.619 369.931 194.819 382.931L194.619 383.031ZM109.719 146.831C109.619 249.731 147.719 355.131 194.819 382.031C291.019 369.031 369.319 274.831 369.719 171.931C322.319 145.131 205.919 133.931 109.719 146.831Z" fill="black"/>
<path d="M345.919 269.831C305.119 246.631 204.219 236.931 120.919 248.131L120.819 247.131C204.319 235.931 305.519 245.731 346.519 269.031L345.919 269.831Z" fill="black"/>
<path d="M194.919 382.931L194.519 382.031C253.819 357.331 302.219 253.331 302.419 150.231H303.419C303.319 253.631 254.619 358.131 194.919 382.931Z" fill="black"/>
<path d="M195.219 382.631L194.219 382.331C202.019 352.631 208.619 244.331 208.819 141.131H209.819C209.619 244.431 203.119 352.831 195.219 382.631Z" fill="black"/>
<path d="M172.719 384.431C135.919 384.431 101.719 371.831 74.4192 347.931C57.2192 332.831 43.7192 314.131 34.2192 292.331C24.4192 269.831 19.5192 245.131 19.5192 218.931C4.81916 210.531 -1.98084 201.131 -0.180837 191.831C3.61916 172.031 45.5192 154.431 109.219 145.831L109.819 145.731V146.331C109.619 249.431 147.919 355.231 195.119 382.031L196.419 382.731L194.919 382.931C187.419 383.931 180.019 384.431 172.719 384.431ZM108.719 146.931C45.8192 155.431 4.51916 172.731 0.819163 192.031C-0.880837 200.931 5.81916 210.031 20.2192 218.231L20.5192 218.331V218.631C20.5192 244.831 25.4192 269.531 35.1192 291.931C44.5192 313.631 58.0192 332.231 75.1192 347.131C107.219 375.231 149.119 387.631 193.319 382.031C146.419 354.131 108.719 249.331 108.719 146.931Z" fill="black"/>
<path d="M194.619 382.931C104.819 366.231 31.9192 268.431 32.1192 164.931H33.1192C32.9192 268.031 105.519 365.431 194.919 382.031L194.619 382.931Z" fill="black"/>
<path d="M194.719 383.031C87.2192 380.631 -0.180828 294.431 0.0191719 190.931H1.01917C0.819172 293.931 87.7192 379.731 194.719 382.031V383.031Z" fill="black"/>
<path d="M196.619 249.831C123.919 249.831 53.8192 238.531 19.7192 219.131L19.4192 219.031V218.731C19.7192 115.131 98.6192 20.3311 195.419 7.33109H195.619L195.719 7.43108C243.219 34.4311 281.719 140.531 281.519 244.031V244.431L281.119 244.531C253.819 248.031 225.019 249.831 196.619 249.831ZM20.5192 218.431C67.9192 245.131 184.319 256.331 280.519 243.531C280.619 140.631 242.519 35.2311 195.419 8.33109C99.2192 21.3311 20.8192 115.531 20.5192 218.431Z" fill="black"/>
<path d="M196.619 147.831C133.819 147.831 73.3192 138.031 43.8192 121.331L44.3192 120.431C85.1192 143.631 186.019 153.331 269.319 142.131L269.419 143.131C246.019 146.331 221.119 147.831 196.619 147.831Z" fill="black"/>
<path d="M196.219 61.2311C159.519 61.2311 124.019 55.5311 106.819 45.7311L107.319 44.8311C131.119 58.3311 190.119 64.0311 238.719 57.5311L238.819 58.5311C225.119 60.3311 210.519 61.2311 196.219 61.2311Z" fill="black"/>
<path d="M87.7192 240.131H86.7192C86.9192 136.631 135.619 32.1311 195.219 7.33109L195.619 8.23108C136.319 32.9311 87.9192 136.931 87.7192 240.131Z" fill="black"/>
<path d="M181.319 249.131H180.319C180.519 145.831 187.019 37.4311 194.919 7.63107L195.919 7.93107C188.119 37.6311 181.519 145.831 181.319 249.131Z" fill="black"/>
<path d="M280.419 244.531V243.931C280.619 140.831 242.319 35.0311 195.119 8.2311L193.819 7.5311L195.319 7.3311C240.319 1.2311 283.119 13.7311 315.719 42.3311C332.919 57.4311 346.419 76.1311 355.919 97.9311C365.719 120.431 370.619 145.131 370.619 171.331C385.319 179.731 392.119 189.131 390.319 198.431C386.519 218.231 344.619 235.831 280.919 244.431L280.419 244.531ZM196.919 8.1311C243.719 36.2311 281.419 141.031 281.419 243.431C344.319 234.931 385.619 217.631 389.319 198.331C391.019 189.431 384.319 180.331 369.919 172.131L369.619 172.031V171.731C369.619 145.531 364.719 120.831 355.019 98.4311C345.619 76.7311 332.119 58.1311 315.019 43.2311C283.019 14.9311 241.119 2.5311 196.919 8.1311Z" fill="black"/>
<path d="M269.519 143.231L269.419 142.231C323.919 134.931 359.819 119.931 363.019 103.231C364.519 95.5311 358.719 87.7311 346.219 80.6311L346.719 79.7311C359.619 87.0311 365.519 95.2311 363.919 103.331C360.619 120.531 324.419 135.831 269.519 143.231Z" fill="black"/>
<path d="M238.819 58.4311L238.719 57.4311C270.519 53.1311 291.419 44.5311 293.319 34.8311C294.219 30.4311 290.819 25.9311 283.619 21.8311L284.119 20.9311C291.719 25.2311 295.219 30.1311 294.319 34.9311C292.219 45.1311 271.019 54.1311 238.819 58.4311Z" fill="black"/>
<path d="M358.119 225.331H357.119C357.319 122.231 284.719 24.8311 195.319 8.23111L195.519 7.23111C285.419 24.0311 358.319 121.831 358.119 225.331Z" fill="black"/>
<path d="M390.119 199.431H389.119C389.319 96.4311 302.419 10.6311 195.419 8.33112V7.33112C303.019 9.63112 390.319 95.8311 390.119 199.431Z" fill="black"/>
<path d="M370.719 172.431L370.019 172.031C322.719 145.131 205.819 133.931 109.319 146.831L108.719 146.931V146.331C108.819 76.4311 126.619 22.7311 155.119 6.13111C167.519 -1.06889 181.419 -0.668894 195.519 7.23111C240.419 1.23111 283.119 13.6311 315.719 42.2311C332.919 57.3311 346.419 76.0311 355.919 97.8311C365.719 120.431 370.719 145.231 370.619 171.531L370.719 172.431ZM193.519 140.431C265.619 140.431 335.319 151.531 369.719 170.731C369.619 144.831 364.719 120.531 355.119 98.2311C345.719 76.5311 332.219 57.9311 315.119 43.0311C282.719 14.6311 240.219 2.23111 195.519 8.23111H195.319L195.219 8.13111C181.219 0.231107 168.019 -0.168893 155.719 6.93111C127.619 23.2311 110.019 76.4311 109.819 145.731C136.719 142.131 165.319 140.431 193.519 140.431Z" fill="black"/>
<path d="M346.219 80.6311C305.419 57.4311 204.519 47.7311 121.219 58.9311L121.119 57.9311C204.619 46.7311 305.819 56.5311 346.819 79.8311L346.219 80.6311Z" fill="black"/>
<path d="M283.519 21.9311C259.719 8.33109 200.819 2.73108 152.119 9.23108L152.019 8.23108C200.819 1.63108 260.119 7.43108 284.019 21.0311L283.519 21.9311Z" fill="black"/>
<path d="M303.419 150.131H302.419C302.519 85.2311 283.719 33.8311 252.119 12.6311C235.219 1.33108 215.719 -0.168921 195.619 8.13108L195.219 7.23108C215.619 -1.26892 235.419 0.331077 252.619 11.8311C284.619 33.2311 303.619 84.9311 303.419 150.131Z" fill="black"/>
<path d="M209.819 141.131H208.819C209.019 49.7311 204.219 1.23109 199.419 0.631092C199.019 0.631092 197.719 0.931091 195.919 7.93109L194.919 7.63109C196.419 1.83109 197.919 -0.568908 199.519 -0.368908C207.319 0.631092 209.919 76.4311 209.819 141.131Z" fill="black"/>
<path d="M20.5192 219.531L19.8192 219.131C4.91916 210.731 -1.88083 201.231 -0.080834 191.831C1.61917 183.031 10.8192 174.631 26.1192 167.331C41.3192 107.131 82.2192 54.7311 134.719 26.9311C140.719 17.6311 147.519 10.5311 155.119 6.13111C167.519 -1.06889 181.519 -0.66889 195.619 7.33111L196.919 8.03111L195.419 8.23111C174.319 11.0311 154.119 17.8311 135.319 27.7311C119.219 53.1311 109.719 95.4311 109.619 146.331V146.731L109.219 146.831C74.2192 151.531 45.8192 158.931 26.8192 167.931C22.7192 184.331 20.4192 201.431 20.4192 218.631L20.5192 219.531ZM25.7192 168.531C11.2192 175.631 2.41917 183.631 0.819167 192.031C-0.880833 200.831 5.61917 209.731 19.5192 217.831C19.6192 201.031 21.7192 184.531 25.7192 168.531ZM133.719 28.6311C82.4192 56.3311 42.4192 107.731 27.2192 166.731C46.2192 157.831 74.3192 150.531 108.719 145.831C108.919 95.9311 118.019 54.3311 133.719 28.6311ZM173.719 1.93111C167.519 1.93111 161.419 3.63111 155.619 7.03111C148.519 11.1311 142.119 17.6311 136.419 26.0311C154.419 16.7311 173.719 10.3311 193.819 7.43111C187.019 3.83111 180.219 1.93111 173.719 1.93111Z" fill="black"/>
<path d="M43.8192 121.331C30.9192 114.031 25.0192 105.831 26.6192 97.7311C29.9192 80.6311 66.1192 65.3311 121.119 57.9311L121.219 58.9311C66.7192 66.2311 30.8192 81.2311 27.6192 97.9311C26.1192 105.631 31.9192 113.431 44.4192 120.531L43.8192 121.331Z" fill="black"/>
<path d="M106.819 45.6311C99.2192 41.3311 95.7192 36.4311 96.6192 31.6311C98.6192 21.5311 119.819 12.5311 152.019 8.23111L152.119 9.23111C120.319 13.5311 99.4192 22.1311 97.5192 31.8311C96.6192 36.2311 100.019 40.7311 107.219 44.8311L106.819 45.6311Z" fill="black"/>
<path d="M33.1192 164.931H32.1192C32.2192 111.031 52.4192 63.4311 87.6192 34.2311C117.519 9.43111 155.819 -0.0688848 195.619 7.33112L195.419 8.33112C155.919 1.03112 117.919 10.4311 88.2192 35.0311C53.3192 63.9311 33.2192 111.331 33.1192 164.931Z" fill="black"/>
<path d="M1.01917 190.831H0.019165C0.119165 142.031 19.5192 96.1311 54.8192 61.7311C92.0192 25.4311 141.919 6.13111 195.419 7.23111V8.23111C142.219 7.03111 92.5192 26.3311 55.5192 62.4311C20.5192 96.6311 1.11917 142.231 1.01917 190.831Z" fill="black"/>
</g>
<mask id="mask1_18_18780" style="mask-type:luminance" maskUnits="userSpaceOnUse" x="0" y="0" width="391" height="391">
<path d="M98.9192 364.831C126.419 380.431 159.419 387.231 194.819 382.531C159.319 387.231 126.419 380.431 98.9192 364.831C93.6192 361.731 86.5192 357.531 81.7192 353.831C77.6192 350.731 72.1192 346.531 68.1192 343.131C64.9192 340.431 60.6192 336.631 57.7192 333.531C54.2192 329.931 49.6192 325.031 46.3192 321.231C43.4192 317.931 39.8192 313.231 37.3192 309.731C33.2192 304.131 27.0192 294.931 20.9192 282.831C9.61916 260.331 4.71916 239.731 2.61916 226.431C1.11916 217.031 0.119156 204.431 0.119156 194.931C0.219156 181.731 0.819155 177.231 2.91916 162.031C3.61916 156.931 5.21916 150.331 6.51916 145.431C7.71916 141.031 9.51916 135.131 11.0192 130.831C15.7192 117.531 20.5192 108.331 24.0192 101.731C26.4192 97.1311 30.1192 91.3311 32.9192 87.0311C35.3192 83.3311 38.9192 78.7311 41.5192 75.1311C44.7192 70.7311 49.6192 65.4311 53.3192 61.4311C56.2192 58.3311 60.2192 54.3311 63.4192 51.4311C67.9192 47.4311 74.0191 42.4311 78.8192 38.7311C86.0191 33.1311 93.3192 28.9311 101.019 24.4311C106.819 21.0311 114.919 17.2311 121.219 14.7311C125.319 13.1311 130.719 11.0311 134.919 9.73108C139.119 8.33108 144.919 6.73108 149.219 5.73108C153.319 4.73108 158.719 3.53108 162.819 2.93108C168.419 2.03108 170.319 1.73108 179.219 0.831083C179.419 0.831083 184.819 0.331081 192.519 0.231081C198.019 0.131081 202.919 0.331082 205.219 0.431082C208.019 0.531082 214.519 1.03108 218.819 1.63108C225.819 2.53108 227.419 2.83108 234.819 4.23108C240.419 5.33108 251.319 8.13108 258.119 10.6311C263.319 12.5311 272.119 15.6311 281.419 20.3311C291.519 25.4311 300.019 30.4311 306.519 35.1311C313.119 39.9311 320.619 45.3311 330.019 54.3311C340.319 64.2311 347.419 73.0311 350.719 77.4311C354.119 81.9311 360.419 90.3311 367.619 103.731C371.919 111.731 376.419 122.931 379.719 131.431C381.519 136.131 383.319 142.631 384.519 147.531C385.619 152.031 386.719 158.131 387.719 162.731C388.719 167.731 389.419 174.631 389.819 179.731C390.319 185.531 390.719 193.331 390.419 199.131C390.119 203.931 389.919 210.231 389.419 215.031C388.919 220.131 388.119 227.031 386.919 232.031C385.919 236.531 384.719 242.631 383.419 247.031C382.019 251.931 379.919 258.531 378.119 263.331C372.119 279.431 365.019 291.431 364.219 292.731C359.719 300.331 352.919 309.931 347.619 317.031C344.319 321.331 339.319 326.631 335.719 330.631C332.919 333.831 328.719 337.631 325.519 340.431C320.919 344.431 314.719 349.531 309.919 353.031C306.119 355.831 300.919 359.331 296.919 361.731C291.119 365.131 283.219 369.431 277.119 372.331C271.819 374.931 259.819 379.831 248.219 383.031C242.819 384.531 228.619 388.331 211.319 389.731C202.619 390.431 189.019 391.031 171.719 388.931C166.019 388.231 161.319 387.431 161.319 387.331C156.519 386.431 156.519 386.431 148.719 384.631C142.719 383.231 135.519 380.831 132.419 379.831C128.319 378.531 123.019 376.531 119.119 374.731C112.719 371.931 104.819 367.931 98.9192 364.831Z" fill="white"/>
</mask>
<g mask="url(#mask1_18_18780)">
<path d="M195.019 390.731C188.219 390.731 180.319 390.331 171.419 389.331C165.719 388.631 161.019 387.731 160.919 387.731C156.119 386.831 156.119 386.831 148.319 385.031C142.319 383.631 135.019 381.231 131.919 380.231C127.419 378.731 122.119 376.731 118.519 375.131C115.819 373.931 112.919 372.531 110.019 371.131C106.119 369.331 102.219 367.431 98.5191 365.231L98.3192 365.131C93.1192 362.031 86.1192 357.831 81.2192 354.231C77.4192 351.331 71.6192 346.931 67.6192 343.531C66.1192 342.231 60.9192 337.731 57.2192 333.931L56.5192 333.231C53.1192 329.631 48.8192 325.231 45.8192 321.631C43.1192 318.431 39.5192 313.931 36.7192 310.131C30.5192 301.631 25.0192 292.531 20.2192 283.131C8.91916 260.631 4.01916 239.931 1.91916 226.531C0.419159 216.731 -0.580841 204.031 -0.580841 194.931C-0.480841 181.731 0.119158 177.131 2.21916 161.931C2.91916 156.731 4.61916 149.931 5.81916 145.231C6.91916 141.031 8.71916 135.231 10.3192 130.531C15.0192 117.131 19.8192 108.031 23.3192 101.331C26.0192 96.2311 30.1192 89.9311 32.3192 86.6311C34.0192 84.0311 36.2192 81.1311 38.3192 78.2311C39.2192 77.0311 40.1192 75.8311 40.9192 74.7311C44.1192 70.3311 48.9192 65.1311 52.7192 61.0311C56.0192 57.5311 60.0192 53.6311 62.8192 51.0311C67.0192 47.3311 73.0192 42.3311 78.2192 38.3311C85.5192 32.7311 92.7191 28.4311 100.519 23.9311C106.219 20.6311 114.419 16.7311 120.719 14.2311C126.619 11.9311 131.119 10.2311 134.419 9.23108C138.619 7.83108 144.319 6.23108 148.719 5.23108C153.319 4.13108 158.619 3.03108 162.419 2.43108C168.019 1.53108 169.919 1.23108 178.919 0.331083C179.119 0.331083 184.519 -0.168919 192.219 -0.268919C197.719 -0.368919 202.619 -0.168918 204.919 -0.0689182C207.719 0.0310819 214.219 0.531083 218.619 1.13108C225.619 2.03108 227.219 2.33108 234.619 3.73108C240.219 4.83108 251.219 7.73108 258.019 10.1311C263.219 12.0311 272.019 15.1311 281.419 19.8311C291.619 25.0311 300.019 29.9311 306.519 34.6311C313.119 39.4311 320.619 44.8311 330.019 53.8311C340.319 63.7311 347.419 72.6311 350.719 77.0311C354.119 81.5311 360.419 89.9311 367.619 103.431C371.919 111.531 376.619 122.931 379.719 131.131C381.119 134.831 382.719 140.131 384.519 147.231C385.319 150.331 386.019 154.131 386.719 157.731C387.019 159.331 387.319 160.931 387.619 162.431C388.419 166.331 389.119 171.931 389.719 179.431C390.119 185.031 390.619 192.931 390.319 198.931C390.219 200.231 390.219 201.631 390.119 203.031C389.919 206.931 389.719 211.331 389.419 214.831C388.919 219.631 388.119 226.731 386.919 231.931C386.619 233.031 386.419 234.331 386.119 235.631C385.319 239.431 384.319 243.631 383.419 247.031C381.919 252.231 379.819 258.831 378.119 263.331C372.119 279.531 365.019 291.531 364.219 292.831C359.319 301.031 352.219 311.031 347.619 317.131C345.119 320.431 341.619 324.231 338.519 327.531C337.519 328.631 336.519 329.731 335.619 330.731C332.619 334.031 328.419 338.031 325.419 340.631C323.319 342.431 316.019 348.731 309.719 353.331C307.919 354.631 301.819 359.031 296.619 362.031C290.819 365.431 282.919 369.731 276.719 372.631C271.419 375.231 259.319 380.131 247.719 383.331C242.319 384.831 228.019 388.731 210.719 390.031C206.819 390.431 201.419 390.731 195.019 390.731ZM129.319 378.231C130.319 378.631 131.319 378.931 132.319 379.231C135.419 380.231 142.619 382.631 148.619 384.031C156.319 385.831 156.319 385.831 161.119 386.631C161.119 386.631 165.919 387.531 171.519 388.231C188.819 390.331 202.319 389.631 211.019 389.031C228.219 387.731 242.519 383.831 247.819 382.331C259.419 379.131 271.419 374.231 276.619 371.731C282.719 368.731 290.619 364.531 296.419 361.131C301.519 358.131 307.619 353.731 309.419 352.431C315.619 347.931 322.919 341.631 325.019 339.831C328.019 337.231 332.219 333.331 335.119 330.031C336.019 329.031 337.019 327.931 338.019 326.831C341.119 323.531 344.619 319.731 347.019 316.431C351.619 310.331 358.719 300.331 363.619 292.231C364.419 290.931 371.419 279.031 377.419 262.931C379.119 258.431 381.219 251.831 382.619 246.731C383.519 243.431 384.519 239.131 385.319 235.431C385.619 234.131 385.919 232.931 386.119 231.731C387.319 226.531 388.119 219.531 388.619 214.731C389.019 211.231 389.219 206.931 389.319 203.031C389.419 201.631 389.419 200.231 389.519 198.931C389.819 193.031 389.419 185.131 388.919 179.531C388.319 172.031 387.619 166.531 386.819 162.631C386.519 161.231 386.219 159.631 385.919 157.931C385.219 154.331 384.519 150.531 383.719 147.531C381.919 140.431 380.319 135.131 378.919 131.531C375.819 123.431 371.219 112.031 366.919 103.931C359.719 90.5311 353.419 82.1311 350.119 77.6311C346.819 73.2311 339.719 64.4311 329.519 54.5311C320.119 45.5311 312.719 40.1311 306.119 35.4311C299.619 30.7311 291.219 25.8311 281.119 20.6311C271.819 15.9311 263.119 12.8311 257.919 10.9311C251.119 8.53109 240.219 5.63108 234.719 4.63108C227.319 3.23108 225.719 2.93108 218.719 2.03108C214.319 1.43108 207.919 0.931083 205.119 0.831083C202.819 0.731083 197.919 0.531083 192.419 0.631083C184.819 0.731083 179.419 1.23108 179.219 1.23108C170.319 2.03108 168.419 2.33108 162.819 3.33108C159.119 3.93108 153.719 5.03108 149.219 6.13108C144.819 7.23108 139.119 8.83108 135.019 10.1311C131.719 11.2311 127.319 12.8311 121.319 15.1311C115.019 17.6311 106.919 21.4311 101.219 24.7311C93.5192 29.2311 86.2191 33.4311 79.0191 39.0311C73.9192 43.0311 67.8192 48.0311 63.7192 51.7311C60.8192 54.2311 56.9192 58.1311 53.6192 61.6311C49.8192 65.7311 45.0192 70.9311 41.9192 75.2311C41.1192 76.3311 40.2192 77.5311 39.3192 78.7311C37.2192 81.6311 35.0192 84.5311 33.3192 87.1311C31.1192 90.4311 27.1192 96.7311 24.4192 101.831C20.9192 108.431 16.1192 117.531 11.4192 130.931C9.81916 135.531 8.01916 141.431 6.91916 145.531C5.71916 150.131 4.01916 156.931 3.31916 162.131C1.21916 177.231 0.519161 181.831 0.519161 194.931C0.519161 203.931 1.41916 216.631 3.01916 226.331C5.11916 239.631 9.91916 260.231 21.2192 282.631C25.9192 291.931 31.4192 300.931 37.6192 309.431C40.3192 313.231 44.0192 317.831 46.6192 320.931C49.7192 324.531 53.9192 328.931 57.3192 332.531L58.0192 333.231C61.7192 337.031 66.9192 341.531 68.4192 342.831C72.4192 346.231 78.2191 350.631 82.0191 353.431C86.8192 357.031 93.8192 361.231 99.0191 364.331L99.2192 364.431C102.419 366.131 106.519 368.231 110.619 370.231C132.119 380.031 155.719 384.431 180.319 383.331C185.119 383.131 189.919 382.631 194.819 382.031L194.919 383.031C172.219 386.031 150.019 384.431 129.319 378.231Z" fill="black"/>
</g>
<mask id="mask2_18_18780" style="mask-type:luminance" maskUnits="userSpaceOnUse" x="0" y="0" width="391" height="391">
<path d="M221.119 388.431C207.619 390.231 196.419 390.331 189.419 390.131C173.119 389.531 163.119 387.631 155.719 386.231C152.219 385.531 145.619 383.931 141.819 382.831C136.919 381.431 130.419 379.231 125.619 377.431C122.119 376.131 117.419 374.131 114.019 372.531C109.419 370.331 103.419 367.231 98.9192 364.831C51.3192 337.731 19.9192 284.331 20.0192 218.731C20.2192 115.231 98.8192 20.8311 195.519 7.83108C98.8192 20.8311 20.2192 115.231 20.0192 218.731C19.9192 284.331 51.3192 337.831 98.9192 364.831C98.9192 364.831 91.3192 361.031 77.0191 350.331C71.8192 346.431 65.2192 340.731 60.5192 336.331C56.5192 332.531 51.3192 327.331 47.9192 323.131C42.3192 316.331 35.2192 306.931 30.3192 299.631C27.4192 295.231 24.0192 289.131 21.6192 284.431C19.3192 279.931 16.3192 273.831 14.5192 269.131C11.3192 260.531 7.61916 248.931 5.21916 240.031C3.91916 235.131 2.71916 228.331 2.01916 223.231C0.81916 214.731 0.31916 203.331 0.0191603 194.831C-0.0808397 190.031 0.219157 183.631 0.719157 178.931C1.21916 173.831 1.81916 166.931 2.91916 161.931C3.91916 157.431 5.01916 151.331 6.11916 146.831C7.41916 141.931 9.21916 135.431 11.0192 130.731C14.1192 122.231 19.1192 111.231 23.1192 103.131C25.3192 98.6311 28.9192 93.0311 31.6192 88.8311C34.4192 84.5311 38.3192 78.9311 41.5192 74.9311C47.0192 68.3311 54.6192 59.7311 60.7192 53.8311C62.3192 52.2311 71.2192 43.7311 84.3192 34.6311C88.7192 31.5311 94.8192 27.8311 99.5191 25.1311C102.419 23.4311 106.519 21.3311 109.619 19.8311C118.819 15.2311 138.119 6.93108 163.419 2.63108C176.919 0.331082 187.419 0.131084 192.519 0.0310836C201.419 -0.168916 212.419 0.631081 218.819 1.43108C225.119 2.23108 227.519 2.63108 234.719 4.03108C237.819 4.63108 243.219 5.93108 248.019 7.23108C255.219 9.23108 259.019 10.6311 264.819 12.8311C268.319 14.1311 272.919 16.2311 276.419 17.7311C281.119 19.7311 287.119 23.0311 291.519 25.4311C295.019 27.3311 299.419 30.1311 302.719 32.3311C309.519 36.7311 317.919 43.4311 324.119 48.6311C328.519 52.3311 334.119 57.6311 337.819 61.9311C341.319 65.9311 346.119 71.3311 349.419 75.5311C352.119 79.0311 355.619 83.8311 358.019 87.5311C360.819 91.8311 364.319 97.7311 366.819 102.231C369.019 106.131 371.619 111.531 373.519 115.731C375.619 120.331 378.019 126.631 379.719 131.431C381.219 135.731 382.819 141.731 384.119 146.131C385.619 151.031 386.819 157.731 387.619 162.731C388.419 167.331 389.019 173.631 389.619 178.331C390.319 183.531 390.419 190.431 390.319 195.631C390.119 205.831 389.919 214.531 387.119 230.531C386.319 235.131 384.919 241.131 383.719 245.631C382.419 250.531 380.519 256.931 378.719 261.631C377.019 265.831 374.919 271.531 373.019 275.631C370.919 280.231 368.019 286.331 365.419 290.631C360.819 298.131 354.319 308.031 349.119 315.131C346.119 319.231 341.619 324.131 338.219 327.931C335.419 331.131 331.319 335.131 328.219 338.031C324.419 341.531 319.219 346.031 315.219 349.131C303.819 358.031 294.119 363.631 289.219 366.331C286.319 367.931 282.319 370.031 279.219 371.431C276.219 372.731 272.219 374.631 269.219 375.831C266.519 376.931 262.819 378.431 259.919 379.331C257.819 380.031 254.919 381.031 252.819 381.631C248.619 382.831 243.019 384.431 238.719 385.431C235.919 385.931 228.619 387.431 221.119 388.431Z" fill="white"/>
</mask>
<g mask="url(#mask2_18_18780)">
<path d="M216.519 389.231C209.419 389.231 202.019 387.131 194.719 383.031C149.819 389.031 107.119 376.631 74.5192 348.031C57.3192 332.931 43.8192 314.231 34.3192 292.431C24.5192 269.831 19.6192 245.031 19.6192 218.731V217.831L20.3192 218.231C67.6192 245.131 184.519 256.331 281.019 243.431L281.619 243.331V243.931C281.519 313.831 263.719 367.531 235.219 384.131C229.119 387.531 222.919 389.231 216.519 389.231ZM194.819 381.931L194.919 382.031C208.919 389.931 222.219 390.331 234.419 383.231C262.519 366.931 280.119 313.731 280.319 244.431C184.319 257.231 68.1192 246.031 20.3192 219.431C20.4192 245.331 25.3192 269.631 34.9192 291.931C44.3192 313.631 57.8192 332.231 74.9192 347.131C107.319 375.531 149.819 387.931 194.519 381.931H194.819Z" fill="black"/>
<path d="M216.519 389.231C209.319 389.231 201.919 387.131 194.519 382.931L193.219 382.231L194.719 382.031C215.819 379.231 236.019 372.431 254.819 362.531C270.919 337.131 280.419 294.831 280.519 243.931V243.531L280.919 243.431C315.919 238.731 344.319 231.331 363.319 222.331C367.419 205.931 369.719 188.831 369.719 171.631V170.731L370.419 171.131C385.319 179.531 392.119 189.031 390.319 198.431C388.619 207.231 379.419 215.631 364.119 222.931C348.819 283.131 307.919 335.531 255.419 363.331C249.419 372.631 242.619 379.731 235.019 384.131C229.119 387.531 222.919 389.231 216.519 389.231ZM196.319 382.731C209.819 389.931 222.619 390.131 234.519 383.231C241.619 379.131 248.019 372.631 253.719 364.231C235.719 373.531 216.419 379.931 196.319 382.731ZM281.419 244.331C281.319 294.231 272.119 335.931 256.419 361.531C307.719 333.831 347.719 282.431 362.919 223.431C343.919 232.331 315.919 239.731 281.419 244.331ZM370.719 172.431C370.619 189.231 368.419 205.731 364.519 221.731C379.019 214.631 387.819 206.631 389.419 198.231C391.119 189.431 384.619 180.531 370.719 172.431Z" fill="black"/>
<path d="M220.719 385.431C212.119 385.431 203.419 384.631 194.719 383.031L194.919 382.031C234.419 389.331 272.419 379.931 302.119 355.331C337.019 326.331 357.119 279.031 357.219 225.431H358.219C358.119 279.331 337.919 326.931 302.719 356.131C279.419 375.331 250.919 385.431 220.719 385.431Z" fill="black"/>
<path d="M199.319 383.031C197.819 383.031 196.219 383.031 194.719 382.931V381.931C247.919 383.131 297.619 363.831 334.619 327.731C369.619 293.531 389.019 247.931 389.119 199.331H390.119C390.019 248.131 370.619 294.031 335.319 328.431C299.219 363.731 251.119 383.031 199.319 383.031Z" fill="black"/>
<path d="M194.619 383.031L194.519 382.931C147.019 355.931 108.519 249.831 108.719 146.331V145.931L109.119 145.831C205.719 132.831 323.019 144.131 370.419 171.131L370.719 171.231V171.531C370.519 275.031 291.619 369.931 194.819 382.931L194.619 383.031ZM109.719 146.831C109.619 249.731 147.719 355.131 194.819 382.031C291.019 369.031 369.319 274.831 369.719 171.931C322.319 145.131 205.919 133.931 109.719 146.831Z" fill="black"/>
<path d="M345.919 269.831C305.119 246.631 204.219 236.931 120.919 248.131L120.819 247.131C204.319 235.931 305.519 245.731 346.519 269.031L345.919 269.831Z" fill="black"/>
<path d="M194.919 382.931L194.519 382.031C253.819 357.331 302.219 253.331 302.419 150.231H303.419C303.319 253.631 254.619 358.131 194.919 382.931Z" fill="black"/>
<path d="M195.219 382.631L194.219 382.331C202.019 352.631 208.619 244.331 208.819 141.131H209.819C209.619 244.431 203.119 352.831 195.219 382.631Z" fill="black"/>
<path d="M172.719 384.431C135.919 384.431 101.719 371.831 74.4192 347.931C57.2192 332.831 43.7192 314.131 34.2192 292.331C24.4192 269.831 19.5192 245.131 19.5192 218.931C4.81916 210.531 -1.98084 201.131 -0.180837 191.831C3.61916 172.031 45.5192 154.431 109.219 145.831L109.819 145.731V146.331C109.619 249.431 147.919 355.231 195.119 382.031L196.419 382.731L194.919 382.931C187.419 383.931 180.019 384.431 172.719 384.431ZM108.719 146.931C45.8192 155.431 4.51916 172.731 0.819163 192.031C-0.880837 200.931 5.81916 210.031 20.2192 218.231L20.5192 218.331V218.631C20.5192 244.831 25.4192 269.531 35.1192 291.931C44.5192 313.631 58.0192 332.231 75.1192 347.131C107.219 375.231 149.119 387.631 193.319 382.031C146.419 354.131 108.719 249.331 108.719 146.931Z" fill="black"/>
<path d="M194.619 382.931C104.819 366.231 31.9192 268.431 32.1192 164.931H33.1192C32.9192 268.031 105.519 365.431 194.919 382.031L194.619 382.931Z" fill="black"/>
<path d="M194.719 383.031C87.2192 380.631 -0.180828 294.431 0.0191719 190.931H1.01917C0.819172 293.931 87.7192 379.731 194.719 382.031V383.031Z" fill="black"/>
<path d="M196.619 249.831C123.919 249.831 53.8192 238.531 19.7192 219.131L19.4192 219.031V218.731C19.7192 115.131 98.6192 20.3311 195.419 7.33109H195.619L195.719 7.43108C243.219 34.4311 281.719 140.531 281.519 244.031V244.431L281.119 244.531C253.819 248.031 225.019 249.831 196.619 249.831ZM20.5192 218.431C67.9192 245.131 184.319 256.331 280.519 243.531C280.619 140.631 242.519 35.2311 195.419 8.33109C99.2192 21.3311 20.8192 115.531 20.5192 218.431Z" fill="black"/>
<path d="M196.619 147.831C133.819 147.831 73.3192 138.031 43.8192 121.331L44.3192 120.431C85.1192 143.631 186.019 153.331 269.319 142.131L269.419 143.131C246.019 146.331 221.119 147.831 196.619 147.831Z" fill="black"/>
<path d="M196.219 61.2311C159.519 61.2311 124.019 55.5311 106.819 45.7311L107.319 44.8311C131.119 58.3311 190.119 64.0311 238.719 57.5311L238.819 58.5311C225.119 60.3311 210.519 61.2311 196.219 61.2311Z" fill="black"/>
<path d="M87.7192 240.131H86.7192C86.9192 136.631 135.619 32.1311 195.219 7.33109L195.619 8.23108C136.319 32.9311 87.9192 136.931 87.7192 240.131Z" fill="black"/>
<path d="M181.319 249.131H180.319C180.519 145.831 187.019 37.4311 194.919 7.63107L195.919 7.93107C188.119 37.6311 181.519 145.831 181.319 249.131Z" fill="black"/>
<path d="M280.419 244.531V243.931C280.619 140.831 242.319 35.0311 195.119 8.2311L193.819 7.5311L195.319 7.3311C240.319 1.2311 283.119 13.7311 315.719 42.3311C332.919 57.4311 346.419 76.1311 355.919 97.9311C365.719 120.431 370.619 145.131 370.619 171.331C385.319 179.731 392.119 189.131 390.319 198.431C386.519 218.231 344.619 235.831 280.919 244.431L280.419 244.531ZM196.919 8.1311C243.719 36.2311 281.419 141.031 281.419 243.431C344.319 234.931 385.619 217.631 389.319 198.331C391.019 189.431 384.319 180.331 369.919 172.131L369.619 172.031V171.731C369.619 145.531 364.719 120.831 355.019 98.4311C345.619 76.7311 332.119 58.1311 315.019 43.2311C283.019 14.9311 241.119 2.5311 196.919 8.1311Z" fill="black"/>
<path d="M269.519 143.231L269.419 142.231C323.919 134.931 359.819 119.931 363.019 103.231C364.519 95.5311 358.719 87.7311 346.219 80.6311L346.719 79.7311C359.619 87.0311 365.519 95.2311 363.919 103.331C360.619 120.531 324.419 135.831 269.519 143.231Z" fill="black"/>
<path d="M238.819 58.4311L238.719 57.4311C270.519 53.1311 291.419 44.5311 293.319 34.8311C294.219 30.4311 290.819 25.9311 283.619 21.8311L284.119 20.9311C291.719 25.2311 295.219 30.1311 294.319 34.9311C292.219 45.1311 271.019 54.1311 238.819 58.4311Z" fill="black"/>
<path d="M358.119 225.331H357.119C357.319 122.231 284.719 24.8311 195.319 8.23111L195.519 7.23111C285.419 24.0311 358.319 121.831 358.119 225.331Z" fill="black"/>
<path d="M390.119 199.431H389.119C389.319 96.4311 302.419 10.6311 195.419 8.33112V7.33112C303.019 9.63112 390.319 95.8311 390.119 199.431Z" fill="black"/>
<path d="M370.719 172.431L370.019 172.031C322.719 145.131 205.819 133.931 109.319 146.831L108.719 146.931V146.331C108.819 76.4311 126.619 22.7311 155.119 6.13111C167.519 -1.06889 181.419 -0.668894 195.519 7.23111C240.419 1.23111 283.119 13.6311 315.719 42.2311C332.919 57.3311 346.419 76.0311 355.919 97.8311C365.719 120.431 370.719 145.231 370.619 171.531L370.719 172.431ZM193.519 140.431C265.619 140.431 335.319 151.531 369.719 170.731C369.619 144.831 364.719 120.531 355.119 98.2311C345.719 76.5311 332.219 57.9311 315.119 43.0311C282.719 14.6311 240.219 2.23111 195.519 8.23111H195.319L195.219 8.13111C181.219 0.231107 168.019 -0.168893 155.719 6.93111C127.619 23.2311 110.019 76.4311 109.819 145.731C136.719 142.131 165.319 140.431 193.519 140.431Z" fill="black"/>
<path d="M346.219 80.6311C305.419 57.4311 204.519 47.7311 121.219 58.9311L121.119 57.9311C204.619 46.7311 305.819 56.5311 346.819 79.8311L346.219 80.6311Z" fill="black"/>
<path d="M283.519 21.9311C259.719 8.33109 200.819 2.73108 152.119 9.23108L152.019 8.23108C200.819 1.63108 260.119 7.43108 284.019 21.0311L283.519 21.9311Z" fill="black"/>
<path d="M303.419 150.131H302.419C302.519 85.2311 283.719 33.8311 252.119 12.6311C235.219 1.33108 215.719 -0.168921 195.619 8.13108L195.219 7.23108C215.619 -1.26892 235.419 0.331077 252.619 11.8311C284.619 33.2311 303.619 84.9311 303.419 150.131Z" fill="black"/>
<path d="M209.819 141.131H208.819C209.019 49.7311 204.219 1.23109 199.419 0.631092C199.019 0.631092 197.719 0.931091 195.919 7.93109L194.919 7.63109C196.419 1.83109 197.919 -0.568908 199.519 -0.368908C207.319 0.631092 209.919 76.4311 209.819 141.131Z" fill="black"/>
<path d="M20.5192 219.531L19.8192 219.131C4.91916 210.731 -1.88083 201.231 -0.080834 191.831C1.61917 183.031 10.8192 174.631 26.1192 167.331C41.3192 107.131 82.2192 54.7311 134.719 26.9311C140.719 17.6311 147.519 10.5311 155.119 6.13111C167.519 -1.06889 181.519 -0.66889 195.619 7.33111L196.919 8.03111L195.419 8.23111C174.319 11.0311 154.119 17.8311 135.319 27.7311C119.219 53.1311 109.719 95.4311 109.619 146.331V146.731L109.219 146.831C74.2192 151.531 45.8192 158.931 26.8192 167.931C22.7192 184.331 20.4192 201.431 20.4192 218.631L20.5192 219.531ZM25.7192 168.531C11.2192 175.631 2.41917 183.631 0.819167 192.031C-0.880833 200.831 5.61917 209.731 19.5192 217.831C19.6192 201.031 21.7192 184.531 25.7192 168.531ZM133.719 28.6311C82.4192 56.3311 42.4192 107.731 27.2192 166.731C46.2192 157.831 74.3192 150.531 108.719 145.831C108.919 95.9311 118.019 54.3311 133.719 28.6311ZM173.719 1.93111C167.519 1.93111 161.419 3.63111 155.619 7.03111C148.519 11.1311 142.119 17.6311 136.419 26.0311C154.419 16.7311 173.719 10.3311 193.819 7.43111C187.019 3.83111 180.219 1.93111 173.719 1.93111Z" fill="black"/>
<path d="M43.8192 121.331C30.9192 114.031 25.0192 105.831 26.6192 97.7311C29.9192 80.6311 66.1192 65.3311 121.119 57.9311L121.219 58.9311C66.7192 66.2311 30.8192 81.2311 27.6192 97.9311C26.1192 105.631 31.9192 113.431 44.4192 120.531L43.8192 121.331Z" fill="black"/>
<path d="M106.819 45.6311C99.2192 41.3311 95.7192 36.4311 96.6192 31.6311C98.6192 21.5311 119.819 12.5311 152.019 8.23111L152.119 9.23111C120.319 13.5311 99.4192 22.1311 97.5192 31.8311C96.6192 36.2311 100.019 40.7311 107.219 44.8311L106.819 45.6311Z" fill="black"/>
<path d="M33.1192 164.931H32.1192C32.2192 111.031 52.4192 63.4311 87.6192 34.2311C117.519 9.43111 155.819 -0.0688848 195.619 7.33112L195.419 8.33112C155.919 1.03112 117.919 10.4311 88.2192 35.0311C53.3192 63.9311 33.2192 111.331 33.1192 164.931Z" fill="black"/>
<path d="M1.01917 190.831H0.019165C0.119165 142.031 19.5192 96.1311 54.8192 61.7311C92.0192 25.4311 141.919 6.13111 195.419 7.23111V8.23111C142.219 7.03111 92.5192 26.3311 55.5192 62.4311C20.5192 96.6311 1.11917 142.231 1.01917 190.831Z" fill="black"/>
</g>
<mask id="mask3_18_18780" style="mask-type:luminance" maskUnits="userSpaceOnUse" x="0" y="0" width="391" height="391">
<path d="M221.119 388.431C207.619 390.231 196.419 390.331 189.419 390.131C173.119 389.531 163.119 387.631 155.719 386.231C152.219 385.531 145.619 383.931 141.819 382.831C136.919 381.431 130.419 379.231 125.619 377.431C122.119 376.131 117.419 374.131 114.019 372.531C109.419 370.331 103.419 367.231 98.9192 364.831C51.3192 337.731 19.9192 284.331 20.0192 218.731C20.2192 115.231 98.8192 20.8311 195.519 7.83108C98.8192 20.8311 20.2192 115.231 20.0192 218.731C19.9192 284.331 51.3192 337.831 98.9192 364.831C98.9192 364.831 91.3192 361.031 77.0191 350.331C71.8192 346.431 65.2192 340.731 60.5192 336.331C56.5192 332.531 51.3192 327.331 47.9192 323.131C42.3192 316.331 35.2192 306.931 30.3192 299.631C27.4192 295.231 24.0192 289.131 21.6192 284.431C19.3192 279.931 16.3192 273.831 14.5192 269.131C11.3192 260.531 7.61916 248.931 5.21916 240.031C3.91916 235.131 2.71916 228.331 2.01916 223.231C0.81916 214.731 0.31916 203.331 0.0191603 194.831C-0.0808397 190.031 0.219157 183.631 0.719157 178.931C1.21916 173.831 1.81916 166.931 2.91916 161.931C3.91916 157.431 5.01916 151.331 6.11916 146.831C7.41916 141.931 9.21916 135.431 11.0192 130.731C14.1192 122.231 19.1192 111.231 23.1192 103.131C25.3192 98.6311 28.9192 93.0311 31.6192 88.8311C34.4192 84.5311 38.3192 78.9311 41.5192 74.9311C47.0192 68.3311 54.6192 59.7311 60.7192 53.8311C62.3192 52.2311 71.2192 43.7311 84.3192 34.6311C88.7192 31.5311 94.8192 27.8311 99.5191 25.1311C102.419 23.4311 106.519 21.3311 109.619 19.8311C118.819 15.2311 138.119 6.93108 163.419 2.63108C176.919 0.331082 187.419 0.131084 192.519 0.0310836C201.419 -0.168916 212.419 0.631081 218.819 1.43108C225.119 2.23108 227.519 2.63108 234.719 4.03108C237.819 4.63108 243.219 5.93108 248.019 7.23108C255.219 9.23108 259.019 10.6311 264.819 12.8311C268.319 14.1311 272.919 16.2311 276.419 17.7311C281.119 19.7311 287.119 23.0311 291.519 25.4311C295.019 27.3311 299.419 30.1311 302.719 32.3311C309.519 36.7311 317.919 43.4311 324.119 48.6311C328.519 52.3311 334.119 57.6311 337.819 61.9311C341.319 65.9311 346.119 71.3311 349.419 75.5311C352.119 79.0311 355.619 83.8311 358.019 87.5311C360.819 91.8311 364.319 97.7311 366.819 102.231C369.019 106.131 371.619 111.531 373.519 115.731C375.619 120.331 378.019 126.631 379.719 131.431C381.219 135.731 382.819 141.731 384.119 146.131C385.619 151.031 386.819 157.731 387.619 162.731C388.419 167.331 389.019 173.631 389.619 178.331C390.319 183.531 390.419 190.431 390.319 195.631C390.119 205.831 389.919 214.531 387.119 230.531C386.319 235.131 384.919 241.131 383.719 245.631C382.419 250.531 380.519 256.931 378.719 261.631C377.019 265.831 374.919 271.531 373.019 275.631C370.919 280.231 368.019 286.331 365.419 290.631C360.819 298.131 354.319 308.031 349.119 315.131C346.119 319.231 341.619 324.131 338.219 327.931C335.419 331.131 331.319 335.131 328.219 338.031C324.419 341.531 319.219 346.031 315.219 349.131C303.819 358.031 294.119 363.631 289.219 366.331C286.319 367.931 282.319 370.031 279.219 371.431C276.219 372.731 272.219 374.631 269.219 375.831C266.519 376.931 262.819 378.431 259.919 379.331C257.819 380.031 254.919 381.031 252.819 381.631C248.619 382.831 243.019 384.431 238.719 385.431C235.919 385.931 228.619 387.431 221.119 388.431Z" fill="white"/>
</mask>
<g mask="url(#mask3_18_18780)">
<path d="M195.219 390.731C193.019 390.731 191.119 390.731 189.419 390.631C173.119 390.031 163.019 388.131 155.619 386.731C152.119 386.031 145.519 384.431 141.719 383.331C136.619 381.831 130.119 379.631 125.419 377.931C121.519 376.431 117.019 374.531 113.719 373.031C109.419 371.031 103.319 367.831 98.6192 365.331C98.5192 365.231 98.4192 365.231 98.3192 365.131C96.3192 364.131 88.6192 359.631 76.6192 350.831C71.8192 347.331 65.3192 341.731 60.1192 336.731C57.6192 334.431 51.5192 328.431 47.4192 323.431C42.6192 317.531 35.1192 307.831 29.8192 299.931C26.8192 295.431 23.3192 289.131 21.1192 284.731C18.8192 280.331 15.8192 274.131 14.0192 269.331C10.8192 260.831 7.11916 249.131 4.71916 240.231C3.61916 236.231 2.51916 230.631 1.51916 223.331C0.519164 216.631 -0.0808357 207.031 -0.480836 194.931C-0.680836 189.831 -0.280839 183.331 0.219161 178.931L0.319164 177.531C0.819164 172.631 1.41916 166.531 2.31916 161.831C2.61916 160.431 2.91916 158.831 3.31916 157.131C4.01916 153.531 4.81916 149.731 5.61916 146.631C6.41916 143.631 8.41916 136.131 10.5192 130.531C14.5192 119.631 20.8192 106.631 22.7192 102.931C24.9192 98.4311 28.6192 92.6311 31.2192 88.6311C32.9192 86.0311 37.3192 79.3311 41.2192 74.7311C46.3192 68.6311 54.1192 59.8311 60.5192 53.5311C62.1192 51.9311 71.0192 43.4311 84.2192 34.3311C88.8192 31.1311 95.0192 27.4311 99.4192 24.8311C102.219 23.2311 105.919 21.3311 109.519 19.5311C118.719 14.9311 138.019 6.5311 163.419 2.3311C177.019 0.0310979 187.519 -0.168904 192.519 -0.268904C201.419 -0.468904 212.519 0.331097 218.819 1.1311C225.219 1.9311 227.519 2.3311 234.719 3.7311C237.919 4.3311 243.219 5.6311 248.019 6.9311C255.219 8.9311 259.019 10.3311 264.819 12.5311C267.519 13.5311 270.919 15.0311 273.819 16.3311C274.719 16.7311 275.619 17.1311 276.419 17.4311C281.019 19.4311 286.919 22.6311 291.519 25.2311C295.019 27.1311 299.519 30.0311 302.819 32.1311C309.819 36.6311 318.419 43.5311 324.219 48.5311C328.219 52.0311 334.019 57.3311 338.019 61.8311L339.819 63.8311C343.119 67.6311 346.819 71.8311 349.719 75.4311C352.219 78.6311 355.619 83.3311 358.319 87.4311C361.019 91.4311 364.519 97.3311 367.119 102.131C369.119 105.831 371.819 111.231 373.819 115.631C375.819 120.031 378.319 126.331 380.019 131.331C381.119 134.331 382.119 138.131 383.219 141.731C383.619 143.231 384.119 144.731 384.519 146.031C385.919 150.831 387.219 157.431 388.119 162.731C388.619 165.931 389.119 169.831 389.519 173.531C389.719 175.231 389.919 176.831 390.119 178.331C390.819 183.831 390.919 190.931 390.819 195.731C390.619 205.931 390.419 214.731 387.619 230.731C386.819 235.131 385.519 241.231 384.219 245.831C382.319 252.731 380.619 258.131 379.219 261.931L378.219 264.431C376.719 268.231 375.019 272.631 373.519 276.031C371.219 281.131 368.419 286.931 365.919 291.031C361.119 298.931 354.519 308.731 349.619 315.531C347.319 318.631 344.119 322.331 341.219 325.531C340.319 326.531 339.519 327.431 338.719 328.331C335.219 332.331 330.119 337.031 328.619 338.431C324.419 342.331 319.319 346.631 315.519 349.631C307.219 356.131 298.619 361.731 289.419 366.831C285.119 369.231 281.819 370.931 279.419 371.931C278.619 372.331 277.719 372.731 276.719 373.131C274.319 374.231 271.619 375.431 269.419 376.331C267.719 377.031 263.419 378.731 260.119 379.831C259.419 380.031 258.719 380.331 258.019 380.531C256.319 381.131 254.519 381.731 253.019 382.131C249.119 383.231 243.319 384.831 238.919 385.931C236.119 386.631 228.819 388.131 221.319 389.131C210.919 390.331 201.919 390.731 195.219 390.731ZM99.1192 364.331C103.819 366.931 109.919 370.031 114.219 372.031C117.419 373.531 121.919 375.431 125.819 376.931C130.419 378.631 136.919 380.831 142.019 382.331C145.719 383.431 152.319 385.031 155.819 385.731C163.119 387.131 173.119 389.131 189.419 389.631C196.419 389.831 207.619 389.831 221.119 387.931C228.619 386.931 235.819 385.431 238.619 384.731C243.019 383.631 248.719 382.131 252.619 380.931C254.119 380.531 255.819 379.931 257.519 379.331C258.319 379.031 259.019 378.831 259.719 378.631C263.019 377.531 267.219 375.831 268.919 375.131C271.119 374.231 273.819 373.031 276.219 371.931C277.119 371.531 278.119 371.131 278.919 370.731C281.319 369.631 284.519 368.031 288.819 365.631C298.019 360.531 306.519 354.931 314.819 348.531C318.519 345.631 323.619 341.231 327.819 337.431C331.719 333.831 335.419 330.131 337.819 327.431C338.619 326.531 339.419 325.631 340.319 324.631C343.119 321.431 346.419 317.831 348.619 314.731C353.519 307.931 360.119 298.131 364.919 290.231C367.419 286.131 370.119 280.331 372.519 275.331C374.019 271.931 375.719 267.631 377.219 263.831L378.219 261.331C379.719 257.631 381.319 252.231 383.219 245.331C384.419 240.731 385.819 234.631 386.619 230.331C389.419 214.431 389.619 205.631 389.819 195.531C389.919 190.731 389.819 183.631 389.119 178.231C388.919 176.731 388.719 175.131 388.519 173.431C388.119 169.731 387.619 165.831 387.119 162.731C386.219 157.531 385.019 150.931 383.619 146.231C383.219 144.931 382.819 143.431 382.319 141.931C381.319 138.331 380.219 134.631 379.119 131.631C377.419 126.631 374.919 120.331 372.919 116.031C371.019 111.731 368.319 106.331 366.319 102.631C363.719 97.9311 360.219 92.0311 357.519 88.0311C354.819 83.9311 351.419 79.2311 348.919 76.1311C346.119 72.6311 342.419 68.3311 339.119 64.6311L337.319 62.6311C333.319 58.1311 327.619 52.8311 323.619 49.4311C317.919 44.5311 309.219 37.6311 302.319 33.1311C299.119 31.0311 294.619 28.2311 291.119 26.2311C286.519 23.7311 280.619 20.5311 276.019 18.5311C275.219 18.1311 274.319 17.8311 273.419 17.4311C270.519 16.1311 267.119 14.7311 264.419 13.7311C258.619 11.6311 254.819 10.2311 247.719 8.2311C242.919 6.8311 237.619 5.6311 234.419 5.0311C227.319 3.6311 224.919 3.3311 218.619 2.4311C212.319 1.6311 201.319 0.831099 192.419 1.0311C187.419 1.1311 176.919 1.3311 163.419 3.6311C138.219 7.8311 119.019 16.1311 109.819 20.7311C106.219 22.5311 102.519 24.4311 99.8192 26.0311C95.4192 28.6311 89.2192 32.3311 84.7192 35.5311C71.6192 44.6311 62.8192 53.0311 61.2192 54.6311C54.8192 60.8311 47.1192 69.6311 42.0192 75.7311C38.2192 80.3311 33.8192 86.9311 32.1192 89.5311C29.5192 93.5311 25.9192 99.2311 23.7192 103.731C19.9192 111.331 14.8192 122.631 11.6192 131.231C9.51916 136.831 7.51916 144.331 6.71916 147.231C5.91916 150.331 5.21916 154.031 4.41916 157.631C4.11916 159.331 3.71916 160.831 3.41916 162.331C2.41916 166.931 1.91916 172.931 1.41916 177.831L1.31916 179.231C0.919164 183.631 0.519163 190.031 0.619163 195.131C1.01916 207.231 1.61916 216.831 2.61916 223.431C3.61916 230.631 4.71916 236.231 5.81916 240.131C8.21916 249.031 12.0192 260.631 15.1192 269.131C16.9192 273.931 19.9192 280.131 22.2192 284.431C24.5192 288.831 27.9192 295.031 30.9192 299.531C36.1192 307.431 43.6192 317.131 48.4192 323.031C52.4192 327.931 58.6192 333.831 61.0192 336.231C64.1192 339.231 67.7192 342.431 71.1192 345.231C39.3192 315.631 20.6192 272.131 19.7192 223.231C19.7192 222.931 19.7192 222.531 19.7192 222.231C19.7192 221.231 19.7192 220.331 19.7192 219.331C19.7192 219.231 19.7192 219.131 19.7192 218.931C19.7192 115.131 98.6192 20.3311 195.419 7.3311L195.519 8.3311C99.2191 21.3311 20.7192 115.631 20.5192 218.731C20.5192 218.831 20.5192 218.931 20.5192 219.131C20.5192 282.031 49.9192 336.331 99.1192 364.331Z" fill="black"/>
</g>
</g>
</svg>
