<svg width="166" height="55" viewBox="0 0 166 55" fill="none" xmlns="http://www.w3.org/2000/svg">
<path d="M166 27.5C154.396 21.1549 144.845 11.6037 138.5 0C132.155 11.6037 122.604 21.1549 111 27.5C122.604 33.8451 132.155 43.3963 138.5 55C144.845 43.3963 154.396 33.8451 166 27.5Z" fill="#FFA800"/>
<path d="M55 27.5C43.3963 21.1549 33.8451 11.6037 27.5 0C21.1549 11.6037 11.6037 21.1549 0 27.5C11.6037 33.8451 21.1549 43.3963 27.5 55C33.8451 43.3963 43.3963 33.8451 55 27.5Z" fill="#B1AFFF"/>
<path d="M110.731 27.5C99.1278 21.1549 89.5766 11.6037 83.2314 0C76.8863 11.6037 67.3351 21.1549 55.7314 27.5C67.3351 33.8451 76.8863 43.3963 83.2314 55C89.5766 43.3963 99.1278 33.8451 110.731 27.5Z" fill="#C8FFD4"/>
</svg>
